<?xml version="1.0" encoding="UTF-8" standalone="no"?><svg xmlns="http://www.w3.org/2000/svg" xmlns:xlink="http://www.w3.org/1999/xlink" contentStyleType="text/css" height="549px" preserveAspectRatio="none" style="width:1949px;height:549px;background:#FFFFFF;" version="1.1" viewBox="0 0 1949 549" width="1949px" zoomAndPan="magnify"><defs/><g><rect fill="none" height="27.6094" id="_title" style="stroke:none;stroke-width:1.0;" width="233" x="851.25" y="5"/><text fill="#000000" font-family="sans-serif" font-size="14" font-weight="bold" lengthAdjust="spacing" textLength="223" x="856.25" y="24.5332">Circuit Simulation class diagram</text><!--MD5=[0226c8d51bc8c261612e56b838750a75]
class logicGate--><g id="elem_logicGate"><rect codeLine="7" fill="#F1F1F1" height="32" id="logicGate" rx="2.5" ry="2.5" style="stroke:#181818;stroke-width:0.5;" width="97" x="307" y="71.1094"/><ellipse cx="322" cy="87.1094" fill="#ADD1B2" rx="11" ry="11" style="stroke:#181818;stroke-width:1.0;"/><path d="M324.7656,82.9844 Q324.9219,82.7656 325.1094,82.6563 Q325.2969,82.5469 325.5156,82.5469 Q325.8906,82.5469 326.125,82.8047 Q326.3594,83.0625 326.3594,83.6719 L326.3594,85.125 Q326.3594,85.7344 326.125,86 Q325.8906,86.2656 325.5156,86.2656 Q325.1719,86.2656 324.9688,86.0625 Q324.7656,85.875 324.6563,85.3594 Q324.6094,85 324.4219,84.8125 Q324.0938,84.4375 323.4844,84.2188 Q322.875,84 322.25,84 Q321.4844,84 320.8516,84.3281 Q320.2188,84.6563 319.7266,85.4063 Q319.2344,86.1563 319.2344,87.1875 L319.2344,88.2813 Q319.2344,89.5156 320.125,90.3359 Q321.0156,91.1563 322.6094,91.1563 Q323.5469,91.1563 324.2031,90.9063 Q324.5938,90.75 325.0156,90.3125 Q325.2813,90.0469 325.4297,89.9688 Q325.5781,89.8906 325.7813,89.8906 Q326.1094,89.8906 326.3672,90.1484 Q326.625,90.4063 326.625,90.75 Q326.625,91.0938 326.2813,91.5 Q325.7813,92.0781 324.9844,92.4063 Q323.9063,92.8594 322.6094,92.8594 Q321.0938,92.8594 319.8906,92.2344 Q318.9063,91.7344 318.2188,90.6641 Q317.5313,89.5938 317.5313,88.3125 L317.5313,87.1563 Q317.5313,85.8281 318.1484,84.6797 Q318.7656,83.5313 319.8594,82.9141 Q320.9531,82.2969 322.1875,82.2969 Q322.9219,82.2969 323.5703,82.4609 Q324.2188,82.625 324.7656,82.9844 Z " fill="#000000"/><text fill="#000000" font-family="sans-serif" font-size="14" lengthAdjust="spacing" textLength="65" x="336" y="92.8379">LogicGate</text></g><!--MD5=[005f6441e5b45dba43c18624cb914bad]
class node--><g id="elem_node"><rect codeLine="10" fill="#F1F1F1" height="153.6563" id="node" rx="2.5" ry="2.5" style="stroke:#181818;stroke-width:0.5;" width="167" x="105" y="189.6094"/><ellipse cx="167.25" cy="205.6094" fill="#A9DCDF" rx="11" ry="11" style="stroke:#181818;stroke-width:1.0;"/><path d="M169.4375,207.375 L165.2969,207.375 L164.875,208.4063 L165.2969,208.4063 Q165.9063,208.4063 166.1719,208.6406 Q166.4375,208.875 166.4375,209.2656 Q166.4375,209.6406 166.1719,209.875 Q165.9063,210.1094 165.2969,210.1094 L163,210.1094 Q162.3906,210.1094 162.1328,209.875 Q161.875,209.6406 161.875,209.25 Q161.875,208.875 162.1484,208.6328 Q162.4219,208.3906 163.0469,208.4063 L165.7188,201.75 L164.6094,201.75 Q164,201.75 163.7344,201.5156 Q163.4688,201.2813 163.4688,200.8906 Q163.4688,200.5156 163.7344,200.2813 Q164,200.0469 164.6094,200.0469 L168.2813,200.0469 L171.6719,208.4063 Q172.2656,208.4063 172.4531,208.5469 Q172.8438,208.8125 172.8438,209.2656 Q172.8438,209.6406 172.5859,209.875 Q172.3281,210.1094 171.7188,210.1094 L169.4219,210.1094 Q168.8125,210.1094 168.5469,209.875 Q168.2813,209.6406 168.2813,209.25 Q168.2813,208.875 168.5469,208.6406 Q168.8125,208.4063 169.4219,208.4063 L169.8438,208.4063 L169.4375,207.375 Z M168.7188,205.6719 L167.3594,202.2969 L165.9844,205.6719 L168.7188,205.6719 Z " fill="#000000"/><text fill="#000000" font-family="sans-serif" font-size="14" font-style="italic" lengthAdjust="spacing" textLength="34" x="187.75" y="211.3379">Node</text><line style="stroke:#181818;stroke-width:0.5;" x1="106" x2="271" y1="221.6094" y2="221.6094"/><rect fill="none" height="6" style="stroke:#C82930;stroke-width:1.0;" width="6" x="113" y="232.9141"/><text fill="#000000" font-family="sans-serif" font-size="14" lengthAdjust="spacing" textLength="132" x="125" y="240.1426">inputs : vector&lt;bool&gt;</text><rect fill="none" height="6" style="stroke:#C82930;stroke-width:1.0;" width="6" x="113" y="250.5234"/><text fill="#000000" font-family="sans-serif" font-size="14" lengthAdjust="spacing" textLength="141" x="125" y="257.752">outputs : vector&lt;bool&gt;</text><rect fill="none" height="6" style="stroke:#C82930;stroke-width:1.0;" width="6" x="113" y="268.1328"/><text fill="#000000" font-family="sans-serif" font-size="14" lengthAdjust="spacing" textLength="82" x="125" y="275.3613">name : string</text><ellipse cx="116" cy="288.7422" fill="none" rx="3" ry="3" style="stroke:#038048;stroke-width:1.0;"/><text fill="#000000" font-family="sans-serif" font-size="14" lengthAdjust="spacing" textLength="139" x="125" y="292.9707">propagationDelay : int</text><line style="stroke:#181818;stroke-width:0.5;" x1="106" x2="271" y1="300.0469" y2="300.0469"/><ellipse cx="116" cy="314.3516" fill="#84BE84" rx="3" ry="3" style="stroke:#038048;stroke-width:1.0;"/><text fill="#000000" font-family="sans-serif" font-size="14" lengthAdjust="spacing" textLength="58" x="125" y="318.5801">run() : int</text><ellipse cx="116" cy="331.9609" fill="#84BE84" rx="3" ry="3" style="stroke:#038048;stroke-width:1.0;"/><text fill="#000000" font-family="sans-serif" font-size="14" lengthAdjust="spacing" textLength="138" x="125" y="336.1895">setValue(value : bool)</text></g><!--MD5=[c2941dae2de927ab2932ad1f04ba5180]
class logicFunction--><g id="elem_logicFunction"><rect codeLine="19" fill="#F1F1F1" height="32" id="logicFunction" rx="2.5" ry="2.5" style="stroke:#181818;stroke-width:0.5;" width="121" x="729" y="250.6094"/><ellipse cx="744" cy="266.6094" fill="#ADD1B2" rx="11" ry="11" style="stroke:#181818;stroke-width:1.0;"/><path d="M746.7656,262.4844 Q746.9219,262.2656 747.1094,262.1563 Q747.2969,262.0469 747.5156,262.0469 Q747.8906,262.0469 748.125,262.3047 Q748.3594,262.5625 748.3594,263.1719 L748.3594,264.625 Q748.3594,265.2344 748.125,265.5 Q747.8906,265.7656 747.5156,265.7656 Q747.1719,265.7656 746.9688,265.5625 Q746.7656,265.375 746.6563,264.8594 Q746.6094,264.5 746.4219,264.3125 Q746.0938,263.9375 745.4844,263.7188 Q744.875,263.5 744.25,263.5 Q743.4844,263.5 742.8516,263.8281 Q742.2188,264.1563 741.7266,264.9063 Q741.2344,265.6563 741.2344,266.6875 L741.2344,267.7813 Q741.2344,269.0156 742.125,269.8359 Q743.0156,270.6563 744.6094,270.6563 Q745.5469,270.6563 746.2031,270.4063 Q746.5938,270.25 747.0156,269.8125 Q747.2813,269.5469 747.4297,269.4688 Q747.5781,269.3906 747.7813,269.3906 Q748.1094,269.3906 748.3672,269.6484 Q748.625,269.9063 748.625,270.25 Q748.625,270.5938 748.2813,271 Q747.7813,271.5781 746.9844,271.9063 Q745.9063,272.3594 744.6094,272.3594 Q743.0938,272.3594 741.8906,271.7344 Q740.9063,271.2344 740.2188,270.1641 Q739.5313,269.0938 739.5313,267.8125 L739.5313,266.6563 Q739.5313,265.3281 740.1484,264.1797 Q740.7656,263.0313 741.8594,262.4141 Q742.9531,261.7969 744.1875,261.7969 Q744.9219,261.7969 745.5703,261.9609 Q746.2188,262.125 746.7656,262.4844 Z " fill="#000000"/><text fill="#000000" font-family="sans-serif" font-size="14" lengthAdjust="spacing" textLength="89" x="758" y="272.3379">LogicFunction</text></g><!--MD5=[debd49d9bf91ff0febc4f51cd478ea1d]
class circuit--><g id="elem_circuit"><rect codeLine="23" fill="#F1F1F1" height="118.4375" id="circuit" rx="2.5" ry="2.5" style="stroke:#181818;stroke-width:0.5;" width="274" x="51.5" y="404.6094"/><ellipse cx="164.25" cy="420.6094" fill="#ADD1B2" rx="11" ry="11" style="stroke:#181818;stroke-width:1.0;"/><path d="M167.0156,416.4844 Q167.1719,416.2656 167.3594,416.1563 Q167.5469,416.0469 167.7656,416.0469 Q168.1406,416.0469 168.375,416.3047 Q168.6094,416.5625 168.6094,417.1719 L168.6094,418.625 Q168.6094,419.2344 168.375,419.5 Q168.1406,419.7656 167.7656,419.7656 Q167.4219,419.7656 167.2188,419.5625 Q167.0156,419.375 166.9063,418.8594 Q166.8594,418.5 166.6719,418.3125 Q166.3438,417.9375 165.7344,417.7188 Q165.125,417.5 164.5,417.5 Q163.7344,417.5 163.1016,417.8281 Q162.4688,418.1563 161.9766,418.9063 Q161.4844,419.6563 161.4844,420.6875 L161.4844,421.7813 Q161.4844,423.0156 162.375,423.8359 Q163.2656,424.6563 164.8594,424.6563 Q165.7969,424.6563 166.4531,424.4063 Q166.8438,424.25 167.2656,423.8125 Q167.5313,423.5469 167.6797,423.4688 Q167.8281,423.3906 168.0313,423.3906 Q168.3594,423.3906 168.6172,423.6484 Q168.875,423.9063 168.875,424.25 Q168.875,424.5938 168.5313,425 Q168.0313,425.5781 167.2344,425.9063 Q166.1563,426.3594 164.8594,426.3594 Q163.3438,426.3594 162.1406,425.7344 Q161.1563,425.2344 160.4688,424.1641 Q159.7813,423.0938 159.7813,421.8125 L159.7813,420.6563 Q159.7813,419.3281 160.3984,418.1797 Q161.0156,417.0313 162.1094,416.4141 Q163.2031,415.7969 164.4375,415.7969 Q165.1719,415.7969 165.8203,415.9609 Q166.4688,416.125 167.0156,416.4844 Z " fill="#000000"/><text fill="#000000" font-family="sans-serif" font-size="14" lengthAdjust="spacing" textLength="40" x="184.75" y="426.3379">Circuit</text><line style="stroke:#181818;stroke-width:0.5;" x1="52.5" x2="324.5" y1="436.6094" y2="436.6094"/><rect fill="none" height="6" style="stroke:#C82930;stroke-width:1.0;" width="6" x="59.5" y="447.9141"/><text fill="#000000" font-family="sans-serif" font-size="14" lengthAdjust="spacing" textLength="172" x="71.5" y="455.1426">nodes : map&lt;char*, node*&gt;</text><line style="stroke:#181818;stroke-width:0.5;" x1="52.5" x2="324.5" y1="462.2188" y2="462.2188"/><ellipse cx="62.5" cy="476.5234" fill="#84BE84" rx="3" ry="3" style="stroke:#038048;stroke-width:1.0;"/><text fill="#000000" font-family="sans-serif" font-size="14" lengthAdjust="spacing" textLength="78" x="71.5" y="480.752">run() : result</text><ellipse cx="62.5" cy="494.1328" fill="#84BE84" rx="3" ry="3" style="stroke:#038048;stroke-width:1.0;"/><text fill="#000000" font-family="sans-serif" font-size="14" lengthAdjust="spacing" textLength="148" x="71.5" y="498.3613">addNode(node : node*)</text><ellipse cx="62.5" cy="511.7422" fill="#84BE84" rx="3" ry="3" style="stroke:#038048;stroke-width:1.0;"/><text fill="#000000" font-family="sans-serif" font-size="14" lengthAdjust="spacing" text-decoration="underline" textLength="248" x="71.5" y="515.9707">createCircuit(fileName : string) : Circuit*</text></g><!--MD5=[f25fe682ca85f596f6cad3d7cdb2e1fb]
class input--><g id="elem_input"><rect codeLine="32" fill="#F1F1F1" height="32" id="input" rx="2.5" ry="2.5" style="stroke:#181818;stroke-width:0.5;" width="63" x="7" y="71.1094"/><ellipse cx="22" cy="87.1094" fill="#ADD1B2" rx="11" ry="11" style="stroke:#181818;stroke-width:1.0;"/><path d="M24.7656,82.9844 Q24.9219,82.7656 25.1094,82.6563 Q25.2969,82.5469 25.5156,82.5469 Q25.8906,82.5469 26.125,82.8047 Q26.3594,83.0625 26.3594,83.6719 L26.3594,85.125 Q26.3594,85.7344 26.125,86 Q25.8906,86.2656 25.5156,86.2656 Q25.1719,86.2656 24.9688,86.0625 Q24.7656,85.875 24.6563,85.3594 Q24.6094,85 24.4219,84.8125 Q24.0938,84.4375 23.4844,84.2188 Q22.875,84 22.25,84 Q21.4844,84 20.8516,84.3281 Q20.2188,84.6563 19.7266,85.4063 Q19.2344,86.1563 19.2344,87.1875 L19.2344,88.2813 Q19.2344,89.5156 20.125,90.3359 Q21.0156,91.1563 22.6094,91.1563 Q23.5469,91.1563 24.2031,90.9063 Q24.5938,90.75 25.0156,90.3125 Q25.2813,90.0469 25.4297,89.9688 Q25.5781,89.8906 25.7813,89.8906 Q26.1094,89.8906 26.3672,90.1484 Q26.625,90.4063 26.625,90.75 Q26.625,91.0938 26.2813,91.5 Q25.7813,92.0781 24.9844,92.4063 Q23.9063,92.8594 22.6094,92.8594 Q21.0938,92.8594 19.8906,92.2344 Q18.9063,91.7344 18.2188,90.6641 Q17.5313,89.5938 17.5313,88.3125 L17.5313,87.1563 Q17.5313,85.8281 18.1484,84.6797 Q18.7656,83.5313 19.8594,82.9141 Q20.9531,82.2969 22.1875,82.2969 Q22.9219,82.2969 23.5703,82.4609 Q24.2188,82.625 24.7656,82.9844 Z " fill="#000000"/><text fill="#000000" font-family="sans-serif" font-size="14" lengthAdjust="spacing" textLength="31" x="36" y="92.8379">Input</text></g><!--MD5=[28f8b93e95d354fc755f54e16b88a1c2]
class probe--><g id="elem_probe"><rect codeLine="34" fill="#F1F1F1" height="57.6094" id="probe" rx="2.5" ry="2.5" style="stroke:#181818;stroke-width:0.5;" width="166" x="105.5" y="58.1094"/><ellipse cx="165.25" cy="74.1094" fill="#ADD1B2" rx="11" ry="11" style="stroke:#181818;stroke-width:1.0;"/><path d="M168.0156,69.9844 Q168.1719,69.7656 168.3594,69.6563 Q168.5469,69.5469 168.7656,69.5469 Q169.1406,69.5469 169.375,69.8047 Q169.6094,70.0625 169.6094,70.6719 L169.6094,72.125 Q169.6094,72.7344 169.375,73 Q169.1406,73.2656 168.7656,73.2656 Q168.4219,73.2656 168.2188,73.0625 Q168.0156,72.875 167.9063,72.3594 Q167.8594,72 167.6719,71.8125 Q167.3438,71.4375 166.7344,71.2188 Q166.125,71 165.5,71 Q164.7344,71 164.1016,71.3281 Q163.4688,71.6563 162.9766,72.4063 Q162.4844,73.1563 162.4844,74.1875 L162.4844,75.2813 Q162.4844,76.5156 163.375,77.3359 Q164.2656,78.1563 165.8594,78.1563 Q166.7969,78.1563 167.4531,77.9063 Q167.8438,77.75 168.2656,77.3125 Q168.5313,77.0469 168.6797,76.9688 Q168.8281,76.8906 169.0313,76.8906 Q169.3594,76.8906 169.6172,77.1484 Q169.875,77.4063 169.875,77.75 Q169.875,78.0938 169.5313,78.5 Q169.0313,79.0781 168.2344,79.4063 Q167.1563,79.8594 165.8594,79.8594 Q164.3438,79.8594 163.1406,79.2344 Q162.1563,78.7344 161.4688,77.6641 Q160.7813,76.5938 160.7813,75.3125 L160.7813,74.1563 Q160.7813,72.8281 161.3984,71.6797 Q162.0156,70.5313 163.1094,69.9141 Q164.2031,69.2969 165.4375,69.2969 Q166.1719,69.2969 166.8203,69.4609 Q167.4688,69.625 168.0156,69.9844 Z " fill="#000000"/><text fill="#000000" font-family="sans-serif" font-size="14" lengthAdjust="spacing" textLength="38" x="185.75" y="79.8379">Probe</text><line style="stroke:#181818;stroke-width:0.5;" x1="106.5" x2="270.5" y1="90.1094" y2="90.1094"/><ellipse cx="116.5" cy="104.4141" fill="#84BE84" rx="3" ry="3" style="stroke:#038048;stroke-width:1.0;"/><text fill="#000000" font-family="sans-serif" font-size="14" lengthAdjust="spacing" textLength="140" x="125.5" y="108.6426">printResult(result : int)</text></g><!--MD5=[3ffcd20f5d7ccc072138805f6c37fcfd]
class nodeFactory--><g id="elem_nodeFactory"><rect codeLine="38" fill="#F1F1F1" height="83.2188" id="nodeFactory" rx="2.5" ry="2.5" style="stroke:#181818;stroke-width:0.5;" width="359" x="1302" y="45.6094"/><ellipse cx="1436.75" cy="61.6094" fill="#ADD1B2" rx="11" ry="11" style="stroke:#181818;stroke-width:1.0;"/><path d="M1439.5156,57.4844 Q1439.6719,57.2656 1439.8594,57.1563 Q1440.0469,57.0469 1440.2656,57.0469 Q1440.6406,57.0469 1440.875,57.3047 Q1441.1094,57.5625 1441.1094,58.1719 L1441.1094,59.625 Q1441.1094,60.2344 1440.875,60.5 Q1440.6406,60.7656 1440.2656,60.7656 Q1439.9219,60.7656 1439.7188,60.5625 Q1439.5156,60.375 1439.4063,59.8594 Q1439.3594,59.5 1439.1719,59.3125 Q1438.8438,58.9375 1438.2344,58.7188 Q1437.625,58.5 1437,58.5 Q1436.2344,58.5 1435.6016,58.8281 Q1434.9688,59.1563 1434.4766,59.9063 Q1433.9844,60.6563 1433.9844,61.6875 L1433.9844,62.7813 Q1433.9844,64.0156 1434.875,64.8359 Q1435.7656,65.6563 1437.3594,65.6563 Q1438.2969,65.6563 1438.9531,65.4063 Q1439.3438,65.25 1439.7656,64.8125 Q1440.0313,64.5469 1440.1797,64.4688 Q1440.3281,64.3906 1440.5313,64.3906 Q1440.8594,64.3906 1441.1172,64.6484 Q1441.375,64.9063 1441.375,65.25 Q1441.375,65.5938 1441.0313,66 Q1440.5313,66.5781 1439.7344,66.9063 Q1438.6563,67.3594 1437.3594,67.3594 Q1435.8438,67.3594 1434.6406,66.7344 Q1433.6563,66.2344 1432.9688,65.1641 Q1432.2813,64.0938 1432.2813,62.8125 L1432.2813,61.6563 Q1432.2813,60.3281 1432.8984,59.1797 Q1433.5156,58.0313 1434.6094,57.4141 Q1435.7031,56.7969 1436.9375,56.7969 Q1437.6719,56.7969 1438.3203,56.9609 Q1438.9688,57.125 1439.5156,57.4844 Z " fill="#000000"/><text fill="#000000" font-family="sans-serif" font-size="14" lengthAdjust="spacing" textLength="81" x="1457.25" y="67.3379">NodeFactory</text><line style="stroke:#181818;stroke-width:0.5;" x1="1303" x2="1660" y1="77.6094" y2="77.6094"/><ellipse cx="1313" cy="91.9141" fill="none" rx="3" ry="3" style="stroke:#038048;stroke-width:1.0;"/><text fill="#000000" font-family="sans-serif" font-size="14" lengthAdjust="spacing" text-decoration="underline" textLength="151" x="1322" y="96.1426">instance : NodeFactory*</text><line style="stroke:#181818;stroke-width:0.5;" x1="1303" x2="1660" y1="103.2188" y2="103.2188"/><ellipse cx="1313" cy="117.5234" fill="#84BE84" rx="3" ry="3" style="stroke:#038048;stroke-width:1.0;"/><text fill="#000000" font-family="sans-serif" font-size="14" lengthAdjust="spacing" text-decoration="underline" textLength="333" x="1322" y="121.752">createNode(nodeType : string, name : string) : node*</text></g><!--MD5=[300c0950b9eb59f49a4c2d16af59c2d2]
class fileReader--><g id="elem_fileReader"><rect codeLine="43" fill="#F1F1F1" height="57.6094" id="fileReader" rx="2.5" ry="2.5" style="stroke:#181818;stroke-width:0.5;" width="246" x="1696.5" y="58.1094"/><ellipse cx="1780.25" cy="74.1094" fill="#ADD1B2" rx="11" ry="11" style="stroke:#181818;stroke-width:1.0;"/><path d="M1783.0156,69.9844 Q1783.1719,69.7656 1783.3594,69.6563 Q1783.5469,69.5469 1783.7656,69.5469 Q1784.1406,69.5469 1784.375,69.8047 Q1784.6094,70.0625 1784.6094,70.6719 L1784.6094,72.125 Q1784.6094,72.7344 1784.375,73 Q1784.1406,73.2656 1783.7656,73.2656 Q1783.4219,73.2656 1783.2188,73.0625 Q1783.0156,72.875 1782.9063,72.3594 Q1782.8594,72 1782.6719,71.8125 Q1782.3438,71.4375 1781.7344,71.2188 Q1781.125,71 1780.5,71 Q1779.7344,71 1779.1016,71.3281 Q1778.4688,71.6563 1777.9766,72.4063 Q1777.4844,73.1563 1777.4844,74.1875 L1777.4844,75.2813 Q1777.4844,76.5156 1778.375,77.3359 Q1779.2656,78.1563 1780.8594,78.1563 Q1781.7969,78.1563 1782.4531,77.9063 Q1782.8438,77.75 1783.2656,77.3125 Q1783.5313,77.0469 1783.6797,76.9688 Q1783.8281,76.8906 1784.0313,76.8906 Q1784.3594,76.8906 1784.6172,77.1484 Q1784.875,77.4063 1784.875,77.75 Q1784.875,78.0938 1784.5313,78.5 Q1784.0313,79.0781 1783.2344,79.4063 Q1782.1563,79.8594 1780.8594,79.8594 Q1779.3438,79.8594 1778.1406,79.2344 Q1777.1563,78.7344 1776.4688,77.6641 Q1775.7813,76.5938 1775.7813,75.3125 L1775.7813,74.1563 Q1775.7813,72.8281 1776.3984,71.6797 Q1777.0156,70.5313 1778.1094,69.9141 Q1779.2031,69.2969 1780.4375,69.2969 Q1781.1719,69.2969 1781.8203,69.4609 Q1782.4688,69.625 1783.0156,69.9844 Z " fill="#000000"/><text fill="#000000" font-family="sans-serif" font-size="14" lengthAdjust="spacing" textLength="70" x="1800.75" y="79.8379">FileReader</text><line style="stroke:#181818;stroke-width:0.5;" x1="1697.5" x2="1941.5" y1="90.1094" y2="90.1094"/><ellipse cx="1707.5" cy="104.4141" fill="#84BE84" rx="3" ry="3" style="stroke:#038048;stroke-width:1.0;"/><text fill="#000000" font-family="sans-serif" font-size="14" lengthAdjust="spacing" text-decoration="underline" textLength="220" x="1716.5" y="108.6426">readFile(fileName : string) : Circuit*</text></g><!--MD5=[0f067d4aa4a44a0f88821ed2d26b6d9e]
class andFunction--><g id="elem_andFunction"><rect fill="#F1F1F1" height="32" id="andFunction" rx="2.5" ry="2.5" style="stroke:#181818;stroke-width:0.5;" width="111" x="1020" y="71.1094"/><ellipse cx="1035" cy="87.1094" fill="#ADD1B2" rx="11" ry="11" style="stroke:#181818;stroke-width:1.0;"/><path d="M1037.7656,82.9844 Q1037.9219,82.7656 1038.1094,82.6563 Q1038.2969,82.5469 1038.5156,82.5469 Q1038.8906,82.5469 1039.125,82.8047 Q1039.3594,83.0625 1039.3594,83.6719 L1039.3594,85.125 Q1039.3594,85.7344 1039.125,86 Q1038.8906,86.2656 1038.5156,86.2656 Q1038.1719,86.2656 1037.9688,86.0625 Q1037.7656,85.875 1037.6563,85.3594 Q1037.6094,85 1037.4219,84.8125 Q1037.0938,84.4375 1036.4844,84.2188 Q1035.875,84 1035.25,84 Q1034.4844,84 1033.8516,84.3281 Q1033.2188,84.6563 1032.7266,85.4063 Q1032.2344,86.1563 1032.2344,87.1875 L1032.2344,88.2813 Q1032.2344,89.5156 1033.125,90.3359 Q1034.0156,91.1563 1035.6094,91.1563 Q1036.5469,91.1563 1037.2031,90.9063 Q1037.5938,90.75 1038.0156,90.3125 Q1038.2813,90.0469 1038.4297,89.9688 Q1038.5781,89.8906 1038.7813,89.8906 Q1039.1094,89.8906 1039.3672,90.1484 Q1039.625,90.4063 1039.625,90.75 Q1039.625,91.0938 1039.2813,91.5 Q1038.7813,92.0781 1037.9844,92.4063 Q1036.9063,92.8594 1035.6094,92.8594 Q1034.0938,92.8594 1032.8906,92.2344 Q1031.9063,91.7344 1031.2188,90.6641 Q1030.5313,89.5938 1030.5313,88.3125 L1030.5313,87.1563 Q1030.5313,85.8281 1031.1484,84.6797 Q1031.7656,83.5313 1032.8594,82.9141 Q1033.9531,82.2969 1035.1875,82.2969 Q1035.9219,82.2969 1036.5703,82.4609 Q1037.2188,82.625 1037.7656,82.9844 Z " fill="#000000"/><text fill="#000000" font-family="sans-serif" font-size="14" lengthAdjust="spacing" textLength="79" x="1049" y="92.8379">andFunction</text></g><!--MD5=[fa1a67c867a23a11069d4b5153d9b31a]
class orFunction--><g id="elem_orFunction"><rect fill="#F1F1F1" height="32" id="orFunction" rx="2.5" ry="2.5" style="stroke:#181818;stroke-width:0.5;" width="100" x="1166.5" y="71.1094"/><ellipse cx="1181.5" cy="87.1094" fill="#ADD1B2" rx="11" ry="11" style="stroke:#181818;stroke-width:1.0;"/><path d="M1184.2656,82.9844 Q1184.4219,82.7656 1184.6094,82.6563 Q1184.7969,82.5469 1185.0156,82.5469 Q1185.3906,82.5469 1185.625,82.8047 Q1185.8594,83.0625 1185.8594,83.6719 L1185.8594,85.125 Q1185.8594,85.7344 1185.625,86 Q1185.3906,86.2656 1185.0156,86.2656 Q1184.6719,86.2656 1184.4688,86.0625 Q1184.2656,85.875 1184.1563,85.3594 Q1184.1094,85 1183.9219,84.8125 Q1183.5938,84.4375 1182.9844,84.2188 Q1182.375,84 1181.75,84 Q1180.9844,84 1180.3516,84.3281 Q1179.7188,84.6563 1179.2266,85.4063 Q1178.7344,86.1563 1178.7344,87.1875 L1178.7344,88.2813 Q1178.7344,89.5156 1179.625,90.3359 Q1180.5156,91.1563 1182.1094,91.1563 Q1183.0469,91.1563 1183.7031,90.9063 Q1184.0938,90.75 1184.5156,90.3125 Q1184.7813,90.0469 1184.9297,89.9688 Q1185.0781,89.8906 1185.2813,89.8906 Q1185.6094,89.8906 1185.8672,90.1484 Q1186.125,90.4063 1186.125,90.75 Q1186.125,91.0938 1185.7813,91.5 Q1185.2813,92.0781 1184.4844,92.4063 Q1183.4063,92.8594 1182.1094,92.8594 Q1180.5938,92.8594 1179.3906,92.2344 Q1178.4063,91.7344 1177.7188,90.6641 Q1177.0313,89.5938 1177.0313,88.3125 L1177.0313,87.1563 Q1177.0313,85.8281 1177.6484,84.6797 Q1178.2656,83.5313 1179.3594,82.9141 Q1180.4531,82.2969 1181.6875,82.2969 Q1182.4219,82.2969 1183.0703,82.4609 Q1183.7188,82.625 1184.2656,82.9844 Z " fill="#000000"/><text fill="#000000" font-family="sans-serif" font-size="14" lengthAdjust="spacing" textLength="68" x="1195.5" y="92.8379">orFunction</text></g><!--MD5=[e955379684b7eab296fcb188820af3a4]
class notFunction--><g id="elem_notFunction"><rect fill="#F1F1F1" height="32" id="notFunction" rx="2.5" ry="2.5" style="stroke:#181818;stroke-width:0.5;" width="107" x="439" y="71.1094"/><ellipse cx="454" cy="87.1094" fill="#ADD1B2" rx="11" ry="11" style="stroke:#181818;stroke-width:1.0;"/><path d="M456.7656,82.9844 Q456.9219,82.7656 457.1094,82.6563 Q457.2969,82.5469 457.5156,82.5469 Q457.8906,82.5469 458.125,82.8047 Q458.3594,83.0625 458.3594,83.6719 L458.3594,85.125 Q458.3594,85.7344 458.125,86 Q457.8906,86.2656 457.5156,86.2656 Q457.1719,86.2656 456.9688,86.0625 Q456.7656,85.875 456.6563,85.3594 Q456.6094,85 456.4219,84.8125 Q456.0938,84.4375 455.4844,84.2188 Q454.875,84 454.25,84 Q453.4844,84 452.8516,84.3281 Q452.2188,84.6563 451.7266,85.4063 Q451.2344,86.1563 451.2344,87.1875 L451.2344,88.2813 Q451.2344,89.5156 452.125,90.3359 Q453.0156,91.1563 454.6094,91.1563 Q455.5469,91.1563 456.2031,90.9063 Q456.5938,90.75 457.0156,90.3125 Q457.2813,90.0469 457.4297,89.9688 Q457.5781,89.8906 457.7813,89.8906 Q458.1094,89.8906 458.3672,90.1484 Q458.625,90.4063 458.625,90.75 Q458.625,91.0938 458.2813,91.5 Q457.7813,92.0781 456.9844,92.4063 Q455.9063,92.8594 454.6094,92.8594 Q453.0938,92.8594 451.8906,92.2344 Q450.9063,91.7344 450.2188,90.6641 Q449.5313,89.5938 449.5313,88.3125 L449.5313,87.1563 Q449.5313,85.8281 450.1484,84.6797 Q450.7656,83.5313 451.8594,82.9141 Q452.9531,82.2969 454.1875,82.2969 Q454.9219,82.2969 455.5703,82.4609 Q456.2188,82.625 456.7656,82.9844 Z " fill="#000000"/><text fill="#000000" font-family="sans-serif" font-size="14" lengthAdjust="spacing" textLength="75" x="468" y="92.8379">notFunction</text></g><!--MD5=[2a4efede861c230d40970cbace16417e]
class nandFunction--><g id="elem_nandFunction"><rect fill="#F1F1F1" height="32" id="nandFunction" rx="2.5" ry="2.5" style="stroke:#181818;stroke-width:0.5;" width="119" x="581" y="71.1094"/><ellipse cx="596" cy="87.1094" fill="#ADD1B2" rx="11" ry="11" style="stroke:#181818;stroke-width:1.0;"/><path d="M598.7656,82.9844 Q598.9219,82.7656 599.1094,82.6563 Q599.2969,82.5469 599.5156,82.5469 Q599.8906,82.5469 600.125,82.8047 Q600.3594,83.0625 600.3594,83.6719 L600.3594,85.125 Q600.3594,85.7344 600.125,86 Q599.8906,86.2656 599.5156,86.2656 Q599.1719,86.2656 598.9688,86.0625 Q598.7656,85.875 598.6563,85.3594 Q598.6094,85 598.4219,84.8125 Q598.0938,84.4375 597.4844,84.2188 Q596.875,84 596.25,84 Q595.4844,84 594.8516,84.3281 Q594.2188,84.6563 593.7266,85.4063 Q593.2344,86.1563 593.2344,87.1875 L593.2344,88.2813 Q593.2344,89.5156 594.125,90.3359 Q595.0156,91.1563 596.6094,91.1563 Q597.5469,91.1563 598.2031,90.9063 Q598.5938,90.75 599.0156,90.3125 Q599.2813,90.0469 599.4297,89.9688 Q599.5781,89.8906 599.7813,89.8906 Q600.1094,89.8906 600.3672,90.1484 Q600.625,90.4063 600.625,90.75 Q600.625,91.0938 600.2813,91.5 Q599.7813,92.0781 598.9844,92.4063 Q597.9063,92.8594 596.6094,92.8594 Q595.0938,92.8594 593.8906,92.2344 Q592.9063,91.7344 592.2188,90.6641 Q591.5313,89.5938 591.5313,88.3125 L591.5313,87.1563 Q591.5313,85.8281 592.1484,84.6797 Q592.7656,83.5313 593.8594,82.9141 Q594.9531,82.2969 596.1875,82.2969 Q596.9219,82.2969 597.5703,82.4609 Q598.2188,82.625 598.7656,82.9844 Z " fill="#000000"/><text fill="#000000" font-family="sans-serif" font-size="14" lengthAdjust="spacing" textLength="87" x="610" y="92.8379">nandFunction</text></g><!--MD5=[cbc2ee107d515bccc3decf4e276085f2]
class norFunction--><g id="elem_norFunction"><rect fill="#F1F1F1" height="32" id="norFunction" rx="2.5" ry="2.5" style="stroke:#181818;stroke-width:0.5;" width="108" x="735.5" y="71.1094"/><ellipse cx="750.5" cy="87.1094" fill="#ADD1B2" rx="11" ry="11" style="stroke:#181818;stroke-width:1.0;"/><path d="M753.2656,82.9844 Q753.4219,82.7656 753.6094,82.6563 Q753.7969,82.5469 754.0156,82.5469 Q754.3906,82.5469 754.625,82.8047 Q754.8594,83.0625 754.8594,83.6719 L754.8594,85.125 Q754.8594,85.7344 754.625,86 Q754.3906,86.2656 754.0156,86.2656 Q753.6719,86.2656 753.4688,86.0625 Q753.2656,85.875 753.1563,85.3594 Q753.1094,85 752.9219,84.8125 Q752.5938,84.4375 751.9844,84.2188 Q751.375,84 750.75,84 Q749.9844,84 749.3516,84.3281 Q748.7188,84.6563 748.2266,85.4063 Q747.7344,86.1563 747.7344,87.1875 L747.7344,88.2813 Q747.7344,89.5156 748.625,90.3359 Q749.5156,91.1563 751.1094,91.1563 Q752.0469,91.1563 752.7031,90.9063 Q753.0938,90.75 753.5156,90.3125 Q753.7813,90.0469 753.9297,89.9688 Q754.0781,89.8906 754.2813,89.8906 Q754.6094,89.8906 754.8672,90.1484 Q755.125,90.4063 755.125,90.75 Q755.125,91.0938 754.7813,91.5 Q754.2813,92.0781 753.4844,92.4063 Q752.4063,92.8594 751.1094,92.8594 Q749.5938,92.8594 748.3906,92.2344 Q747.4063,91.7344 746.7188,90.6641 Q746.0313,89.5938 746.0313,88.3125 L746.0313,87.1563 Q746.0313,85.8281 746.6484,84.6797 Q747.2656,83.5313 748.3594,82.9141 Q749.4531,82.2969 750.6875,82.2969 Q751.4219,82.2969 752.0703,82.4609 Q752.7188,82.625 753.2656,82.9844 Z " fill="#000000"/><text fill="#000000" font-family="sans-serif" font-size="14" lengthAdjust="spacing" textLength="76" x="764.5" y="92.8379">norFunction</text></g><!--MD5=[e3848d8232823cf53cae2b0c45ec0813]
class xorFunction--><g id="elem_xorFunction"><rect fill="#F1F1F1" height="32" id="xorFunction" rx="2.5" ry="2.5" style="stroke:#181818;stroke-width:0.5;" width="106" x="878.5" y="71.1094"/><ellipse cx="893.5" cy="87.1094" fill="#ADD1B2" rx="11" ry="11" style="stroke:#181818;stroke-width:1.0;"/><path d="M896.2656,82.9844 Q896.4219,82.7656 896.6094,82.6563 Q896.7969,82.5469 897.0156,82.5469 Q897.3906,82.5469 897.625,82.8047 Q897.8594,83.0625 897.8594,83.6719 L897.8594,85.125 Q897.8594,85.7344 897.625,86 Q897.3906,86.2656 897.0156,86.2656 Q896.6719,86.2656 896.4688,86.0625 Q896.2656,85.875 896.1563,85.3594 Q896.1094,85 895.9219,84.8125 Q895.5938,84.4375 894.9844,84.2188 Q894.375,84 893.75,84 Q892.9844,84 892.3516,84.3281 Q891.7188,84.6563 891.2266,85.4063 Q890.7344,86.1563 890.7344,87.1875 L890.7344,88.2813 Q890.7344,89.5156 891.625,90.3359 Q892.5156,91.1563 894.1094,91.1563 Q895.0469,91.1563 895.7031,90.9063 Q896.0938,90.75 896.5156,90.3125 Q896.7813,90.0469 896.9297,89.9688 Q897.0781,89.8906 897.2813,89.8906 Q897.6094,89.8906 897.8672,90.1484 Q898.125,90.4063 898.125,90.75 Q898.125,91.0938 897.7813,91.5 Q897.2813,92.0781 896.4844,92.4063 Q895.4063,92.8594 894.1094,92.8594 Q892.5938,92.8594 891.3906,92.2344 Q890.4063,91.7344 889.7188,90.6641 Q889.0313,89.5938 889.0313,88.3125 L889.0313,87.1563 Q889.0313,85.8281 889.6484,84.6797 Q890.2656,83.5313 891.3594,82.9141 Q892.4531,82.2969 893.6875,82.2969 Q894.4219,82.2969 895.0703,82.4609 Q895.7188,82.625 896.2656,82.9844 Z " fill="#000000"/><text fill="#000000" font-family="sans-serif" font-size="14" lengthAdjust="spacing" textLength="74" x="907.5" y="92.8379">xorFunction</text></g><!--MD5=[2249319b84a8ff8910adc7bfcf919aa9]
reverse link node to circuit--><g id="link_node_circuit"><path codeLine="47" d="M188.5,357.2294 C188.5,373.3094 188.5,389.6594 188.5,404.5494 " fill="none" id="node-backto-circuit" style="stroke:#181818;stroke-width:1.0;"/><polygon fill="#181818" points="188.5,343.8394,184.5,349.8394,188.5,355.8394,192.5,349.8394,188.5,343.8394" style="stroke:#181818;stroke-width:1.0;"/></g><!--MD5=[e9ec25d983873764803f5c01104cc763]
reverse link node to node--><g id="link_node_node"><path codeLine="48" d="M285.22,248.9794 C298.29,251.9394 307,257.8094 307,266.6094 C307,278.0994 292.15,284.6094 272.1,286.1294 " fill="none" id="node-backto-node" style="stroke:#181818;stroke-width:1.0;"/><polygon fill="none" points="272.1,247.0894,277.4673,251.9052,283.977,248.803,278.6097,243.9872,272.1,247.0894" style="stroke:#181818;stroke-width:1.0;"/><rect fill="none" height="6" style="stroke:#C82930;stroke-width:1.0;" width="6" x="315" y="264.2852"/><text fill="#000000" font-family="sans-serif" font-size="13" lengthAdjust="spacing" textLength="62" x="325" y="272.1045">nextNodes</text><text fill="#000000" font-family="sans-serif" font-size="13" lengthAdjust="spacing" textLength="7" x="280.1295" y="242.0795">1</text><text fill="#000000" font-family="sans-serif" font-size="13" lengthAdjust="spacing" textLength="5" x="280.0373" y="284.7185">*</text></g><!--MD5=[8b505fb43d7107e2741092896175508e]
link input to node--><g id="link_input_node"><path codeLine="50" d="M51.29,103.2394 C64.91,119.3694 87.66,146.2894 110.76,173.6194 " fill="none" id="input-to-node" style="stroke:#181818;stroke-width:1.0;"/><polygon fill="none" points="116.39,169.4294,123.95,189.2294,105.7,178.4694,116.39,169.4294" style="stroke:#181818;stroke-width:1.0;"/></g><!--MD5=[01419a1ee32e51285a37660357031f17]
link probe to node--><g id="link_probe_node"><path codeLine="51" d="M188.5,116.2394 C188.5,130.8894 188.5,149.7694 188.5,169.1494 " fill="none" id="probe-to-node" style="stroke:#181818;stroke-width:1.0;"/><polygon fill="none" points="195.5,169.3594,188.5,189.3594,181.5,169.3594,195.5,169.3594" style="stroke:#181818;stroke-width:1.0;"/></g><!--MD5=[5204b4942c9e2bd56e5dbdad151341f6]
link logicGate to node--><g id="link_logicGate_node"><path codeLine="52" d="M341.26,103.2394 C325.95,119.5194 300.29,146.7894 274.33,174.3794 " fill="none" id="logicGate-to-node" style="stroke:#181818;stroke-width:1.0;"/><polygon fill="none" points="279.17,179.4594,260.36,189.2294,268.97,169.8594,279.17,179.4594" style="stroke:#181818;stroke-width:1.0;"/></g><!--MD5=[5ce8026c384cea08f35a2e53b136e9d1]
reverse link logicGate to logicFunction--><g id="link_logicGate_logicFunction"><path codeLine="54" d="M389.1,110.4594 C399.28,116.7494 410.64,123.3194 421.5,128.6094 C531.51,182.2094 668.17,227.9994 740.02,250.5794 " fill="none" id="logicGate-backto-logicFunction" style="stroke:#181818;stroke-width:1.0;"/><polygon fill="#181818" points="377.79,103.2894,380.7128,109.8816,387.9221,109.7191,384.9993,103.1269,377.79,103.2894" style="stroke:#181818;stroke-width:1.0;"/></g><!--MD5=[9f7eef0b64ab662d51389c0dfcabb017]
link andFunction to logicFunction--><g id="link_andFunction_logicFunction"><path codeLine="56" d="M1051.12,103.2394 C1002.15,133.6294 891.38,202.3794 830.86,239.9394 " fill="none" id="andFunction-to-logicFunction" style="stroke:#181818;stroke-width:1.0;"/><polygon fill="none" points="834.51,245.9194,813.82,250.5094,827.12,234.0194,834.51,245.9194" style="stroke:#181818;stroke-width:1.0;"/></g><!--MD5=[46e65eff66e5b48c3b65cac6fd67b25a]
link orFunction to logicFunction--><g id="link_orFunction_logicFunction"><path codeLine="57" d="M1193.45,103.1894 C1180.53,111.2894 1163.96,121.1294 1148.5,128.6094 C1049.43,176.5694 928.95,219.6194 855.8,244.1594 " fill="none" id="orFunction-to-logicFunction" style="stroke:#181818;stroke-width:1.0;"/><polygon fill="none" points="857.66,250.9194,836.48,250.5794,853.25,237.6294,857.66,250.9194" style="stroke:#181818;stroke-width:1.0;"/></g><!--MD5=[c83be8a7f983878377ce9bf45174d864]
link notFunction to logicFunction--><g id="link_notFunction_logicFunction"><path codeLine="58" d="M517.82,103.2394 C568.78,133.6994 684.2,202.6794 746.95,240.1794 " fill="none" id="notFunction-to-logicFunction" style="stroke:#181818;stroke-width:1.0;"/><polygon fill="none" points="750.67,234.2494,764.24,250.5094,743.48,246.2594,750.67,234.2494" style="stroke:#181818;stroke-width:1.0;"/></g><!--MD5=[4b3327dcb63d164d7d889f4250cceb59]
link nandFunction to logicFunction--><g id="link_nandFunction_logicFunction"><path codeLine="59" d="M653.2,103.2394 C677.67,132.3894 731.75,196.8194 763.95,235.1694 " fill="none" id="nandFunction-to-logicFunction" style="stroke:#181818;stroke-width:1.0;"/><polygon fill="none" points="769.33,230.6994,776.83,250.5094,758.61,239.6994,769.33,230.6994" style="stroke:#181818;stroke-width:1.0;"/></g><!--MD5=[9e5965a93914beed70434cbe41e2792b]
link norFunction to logicFunction--><g id="link_norFunction_logicFunction"><path codeLine="60" d="M789.5,103.2394 C789.5,131.2094 789.5,191.6594 789.5,230.3894 " fill="none" id="norFunction-to-logicFunction" style="stroke:#181818;stroke-width:1.0;"/><polygon fill="none" points="796.5,230.5094,789.5,250.5094,782.5,230.5094,796.5,230.5094" style="stroke:#181818;stroke-width:1.0;"/></g><!--MD5=[6fe8500ed042e7deaa4d0606d0b4ecdc]
link xorFunction to logicFunction--><g id="link_xorFunction_logicFunction"><path codeLine="61" d="M919.39,103.2394 C896.18,132.2594 845,196.2394 814.27,234.6494 " fill="none" id="xorFunction-to-logicFunction" style="stroke:#181818;stroke-width:1.0;"/><polygon fill="none" points="819.54,239.2694,801.58,250.5094,808.6,230.5194,819.54,239.2694" style="stroke:#181818;stroke-width:1.0;"/></g><rect fill="none" height="12.5781" style="stroke:none;stroke-width:1.0;" width="65" x="1870.5" y="529.0469"/><text fill="#888888" font-family="sans-serif" font-size="10" lengthAdjust="spacing" textLength="65" x="1870.5" y="539.4277">20-05-11 v2.0</text><!--MD5=[62378aae5592432b474ee4f237d8ee3b]
@startuml classDiagram

title Circuit Simulation class diagram
right footer "20-05-11 v2.0"

hide empty members

class logicGate as "LogicGate" {
}

abstract class node as "Node" {
    - inputs : vector<bool>
    - outputs : vector<bool>
    - name : string
    + propagationDelay : int
    + run() : int 
    + setValue(value : bool)
}

class logicFunction as "LogicFunction" {

}

class circuit as "Circuit" {
    'store nodes by name as identifier'
    - nodes : map<char*, node*>

    + run() : result
    + addNode(node : node*)
    + {static} createCircuit(fileName : string) : Circuit*
}

class input as "Input" {
}
class probe as "Probe" {
    + printResult(result : int)
}

class nodeFactory as "NodeFactory" {
    + {static} instance : NodeFactory*
    + {static} createNode(nodeType : string, name : string) : node*
}

class fileReader as "FileReader" {
    + {static} readFile(fileName : string) : Circuit*
}

node *- - circuit
node "1" o- - "*" node : - nextNodes

input - -|> node
probe - -|> node
logicGate - -|> node

logicGate *- - logicFunction

andFunction - -|> logicFunction
orFunction - -|> logicFunction
notFunction - -|> logicFunction
nandFunction - -|> logicFunction
norFunction - -|> logicFunction
xorFunction - -|> logicFunction

@enduml

@startuml classDiagram

title Circuit Simulation class diagram
right footer "20-05-11 v2.0"

hide empty members

class logicGate as "LogicGate" {
}

abstract class node as "Node" {
    - inputs : vector<bool>
    - outputs : vector<bool>
    - name : string
    + propagationDelay : int
    + run() : int 
    + setValue(value : bool)
}

class logicFunction as "LogicFunction" {

}

class circuit as "Circuit" {
    - nodes : map<char*, node*>

    + run() : result
    + addNode(node : node*)
    + {static} createCircuit(fileName : string) : Circuit*
}

class input as "Input" {
}
class probe as "Probe" {
    + printResult(result : int)
}

class nodeFactory as "NodeFactory" {
    + {static} instance : NodeFactory*
    + {static} createNode(nodeType : string, name : string) : node*
}

class fileReader as "FileReader" {
    + {static} readFile(fileName : string) : Circuit*
}

node *- - circuit
node "1" o- - "*" node : - nextNodes

input - -|> node
probe - -|> node
logicGate - -|> node

logicGate *- - logicFunction

andFunction - -|> logicFunction
orFunction - -|> logicFunction
notFunction - -|> logicFunction
nandFunction - -|> logicFunction
norFunction - -|> logicFunction
xorFunction - -|> logicFunction

@enduml

PlantUML version 1.2022.7(Mon Aug 22 19:01:30 CEST 2022)
(GPL source distribution)
Java Runtime: Java(TM) SE Runtime Environment
JVM: Java HotSpot(TM) 64-Bit Server VM
Default Encoding: Cp1252
Language: en
Country: US
--></g></svg>