<?xml version="1.0" encoding="UTF-8" standalone="no"?><svg xmlns="http://www.w3.org/2000/svg" xmlns:xlink="http://www.w3.org/1999/xlink" contentStyleType="text/css" height="653px" preserveAspectRatio="none" style="width:1949px;height:653px;background:#FFFFFF;" version="1.1" viewBox="0 0 1949 653" width="1949px" zoomAndPan="magnify"><defs/><g><rect fill="none" height="27.6094" id="_title" style="stroke:none;stroke-width:1.0;" width="233" x="851.25" y="5"/><text fill="#000000" font-family="sans-serif" font-size="14" font-weight="bold" lengthAdjust="spacing" textLength="223" x="856.25" y="24.5332">Circuit Simulation class diagram</text><!--MD5=[0226c8d51bc8c261612e56b838750a75]
class logicGate--><g id="elem_logicGate"><rect codeLine="7" fill="#F1F1F1" height="32" id="logicGate" rx="2.5" ry="2.5" style="stroke:#181818;stroke-width:0.5;" width="97" x="307" y="71.1094"/><ellipse cx="322" cy="87.1094" fill="#ADD1B2" rx="11" ry="11" style="stroke:#181818;stroke-width:1.0;"/><path d="M324.7656,82.9844 Q324.9219,82.7656 325.1094,82.6563 Q325.2969,82.5469 325.5156,82.5469 Q325.8906,82.5469 326.125,82.8047 Q326.3594,83.0625 326.3594,83.6719 L326.3594,85.125 Q326.3594,85.7344 326.125,86 Q325.8906,86.2656 325.5156,86.2656 Q325.1719,86.2656 324.9688,86.0625 Q324.7656,85.875 324.6563,85.3594 Q324.6094,85 324.4219,84.8125 Q324.0938,84.4375 323.4844,84.2188 Q322.875,84 322.25,84 Q321.4844,84 320.8516,84.3281 Q320.2188,84.6563 319.7266,85.4063 Q319.2344,86.1563 319.2344,87.1875 L319.2344,88.2813 Q319.2344,89.5156 320.125,90.3359 Q321.0156,91.1563 322.6094,91.1563 Q323.5469,91.1563 324.2031,90.9063 Q324.5938,90.75 325.0156,90.3125 Q325.2813,90.0469 325.4297,89.9688 Q325.5781,89.8906 325.7813,89.8906 Q326.1094,89.8906 326.3672,90.1484 Q326.625,90.4063 326.625,90.75 Q326.625,91.0938 326.2813,91.5 Q325.7813,92.0781 324.9844,92.4063 Q323.9063,92.8594 322.6094,92.8594 Q321.0938,92.8594 319.8906,92.2344 Q318.9063,91.7344 318.2188,90.6641 Q317.5313,89.5938 317.5313,88.3125 L317.5313,87.1563 Q317.5313,85.8281 318.1484,84.6797 Q318.7656,83.5313 319.8594,82.9141 Q320.9531,82.2969 322.1875,82.2969 Q322.9219,82.2969 323.5703,82.4609 Q324.2188,82.625 324.7656,82.9844 Z " fill="#000000"/><text fill="#000000" font-family="sans-serif" font-size="14" lengthAdjust="spacing" textLength="65" x="336" y="92.8379">LogicGate</text></g><!--MD5=[005f6441e5b45dba43c18624cb914bad]
class node--><g id="elem_node"><rect codeLine="10" fill="#F1F1F1" height="188.875" id="node" rx="2.5" ry="2.5" style="stroke:#181818;stroke-width:0.5;" width="168" x="104.5" y="188.6094"/><ellipse cx="167.25" cy="204.6094" fill="#A9DCDF" rx="11" ry="11" style="stroke:#181818;stroke-width:1.0;"/><path d="M169.4375,206.375 L165.2969,206.375 L164.875,207.4063 L165.2969,207.4063 Q165.9063,207.4063 166.1719,207.6406 Q166.4375,207.875 166.4375,208.2656 Q166.4375,208.6406 166.1719,208.875 Q165.9063,209.1094 165.2969,209.1094 L163,209.1094 Q162.3906,209.1094 162.1328,208.875 Q161.875,208.6406 161.875,208.25 Q161.875,207.875 162.1484,207.6328 Q162.4219,207.3906 163.0469,207.4063 L165.7188,200.75 L164.6094,200.75 Q164,200.75 163.7344,200.5156 Q163.4688,200.2813 163.4688,199.8906 Q163.4688,199.5156 163.7344,199.2813 Q164,199.0469 164.6094,199.0469 L168.2813,199.0469 L171.6719,207.4063 Q172.2656,207.4063 172.4531,207.5469 Q172.8438,207.8125 172.8438,208.2656 Q172.8438,208.6406 172.5859,208.875 Q172.3281,209.1094 171.7188,209.1094 L169.4219,209.1094 Q168.8125,209.1094 168.5469,208.875 Q168.2813,208.6406 168.2813,208.25 Q168.2813,207.875 168.5469,207.6406 Q168.8125,207.4063 169.4219,207.4063 L169.8438,207.4063 L169.4375,206.375 Z M168.7188,204.6719 L167.3594,201.2969 L165.9844,204.6719 L168.7188,204.6719 Z " fill="#000000"/><text fill="#000000" font-family="sans-serif" font-size="14" font-style="italic" lengthAdjust="spacing" textLength="34" x="187.75" y="210.3379">Node</text><line style="stroke:#181818;stroke-width:0.5;" x1="105.5" x2="271.5" y1="220.6094" y2="220.6094"/><rect fill="none" height="6" style="stroke:#C82930;stroke-width:1.0;" width="6" x="112.5" y="231.9141"/><text fill="#000000" font-family="sans-serif" font-size="14" lengthAdjust="spacing" textLength="132" x="124.5" y="239.1426">inputs : vector&lt;bool&gt;</text><rect fill="none" height="6" style="stroke:#C82930;stroke-width:1.0;" width="6" x="112.5" y="249.5234"/><text fill="#000000" font-family="sans-serif" font-size="14" lengthAdjust="spacing" textLength="141" x="124.5" y="256.752">outputs : vector&lt;bool&gt;</text><rect fill="none" height="6" style="stroke:#C82930;stroke-width:1.0;" width="6" x="112.5" y="267.1328"/><text fill="#000000" font-family="sans-serif" font-size="14" lengthAdjust="spacing" textLength="82" x="124.5" y="274.3613">name : string</text><rect fill="none" height="6" style="stroke:#C82930;stroke-width:1.0;" width="6" x="112.5" y="284.7422"/><text fill="#000000" font-family="sans-serif" font-size="14" lengthAdjust="spacing" textLength="142" x="124.5" y="291.9707">nextNodeName : string</text><text fill="#000000" font-family="sans-serif" font-size="14" lengthAdjust="spacing" textLength="4" x="124.5" y="309.5801"> </text><ellipse cx="115.5" cy="322.9609" fill="none" rx="3" ry="3" style="stroke:#038048;stroke-width:1.0;"/><text fill="#000000" font-family="sans-serif" font-size="14" lengthAdjust="spacing" textLength="139" x="124.5" y="327.1895">propagationDelay : int</text><line style="stroke:#181818;stroke-width:0.5;" x1="105.5" x2="271.5" y1="334.2656" y2="334.2656"/><ellipse cx="115.5" cy="348.5703" fill="#84BE84" rx="3" ry="3" style="stroke:#038048;stroke-width:1.0;"/><text fill="#000000" font-family="sans-serif" font-size="14" lengthAdjust="spacing" textLength="58" x="124.5" y="352.7988">run() : int</text><ellipse cx="115.5" cy="366.1797" fill="#84BE84" rx="3" ry="3" style="stroke:#038048;stroke-width:1.0;"/><text fill="#000000" font-family="sans-serif" font-size="14" lengthAdjust="spacing" textLength="138" x="124.5" y="370.4082">setValue(value : bool)</text></g><!--MD5=[c2941dae2de927ab2932ad1f04ba5180]
class logicFunction--><g id="elem_logicFunction"><rect codeLine="21" fill="#F1F1F1" height="32" id="logicFunction" rx="2.5" ry="2.5" style="stroke:#181818;stroke-width:0.5;" width="121" x="714" y="267.1094"/><ellipse cx="729" cy="283.1094" fill="#ADD1B2" rx="11" ry="11" style="stroke:#181818;stroke-width:1.0;"/><path d="M731.7656,278.9844 Q731.9219,278.7656 732.1094,278.6563 Q732.2969,278.5469 732.5156,278.5469 Q732.8906,278.5469 733.125,278.8047 Q733.3594,279.0625 733.3594,279.6719 L733.3594,281.125 Q733.3594,281.7344 733.125,282 Q732.8906,282.2656 732.5156,282.2656 Q732.1719,282.2656 731.9688,282.0625 Q731.7656,281.875 731.6563,281.3594 Q731.6094,281 731.4219,280.8125 Q731.0938,280.4375 730.4844,280.2188 Q729.875,280 729.25,280 Q728.4844,280 727.8516,280.3281 Q727.2188,280.6563 726.7266,281.4063 Q726.2344,282.1563 726.2344,283.1875 L726.2344,284.2813 Q726.2344,285.5156 727.125,286.3359 Q728.0156,287.1563 729.6094,287.1563 Q730.5469,287.1563 731.2031,286.9063 Q731.5938,286.75 732.0156,286.3125 Q732.2813,286.0469 732.4297,285.9688 Q732.5781,285.8906 732.7813,285.8906 Q733.1094,285.8906 733.3672,286.1484 Q733.625,286.4063 733.625,286.75 Q733.625,287.0938 733.2813,287.5 Q732.7813,288.0781 731.9844,288.4063 Q730.9063,288.8594 729.6094,288.8594 Q728.0938,288.8594 726.8906,288.2344 Q725.9063,287.7344 725.2188,286.6641 Q724.5313,285.5938 724.5313,284.3125 L724.5313,283.1563 Q724.5313,281.8281 725.1484,280.6797 Q725.7656,279.5313 726.8594,278.9141 Q727.9531,278.2969 729.1875,278.2969 Q729.9219,278.2969 730.5703,278.4609 Q731.2188,278.625 731.7656,278.9844 Z " fill="#000000"/><text fill="#000000" font-family="sans-serif" font-size="14" lengthAdjust="spacing" textLength="89" x="743" y="288.8379">LogicFunction</text></g><!--MD5=[debd49d9bf91ff0febc4f51cd478ea1d]
class circuit--><g id="elem_circuit"><rect codeLine="25" fill="#F1F1F1" height="188.875" id="circuit" rx="2.5" ry="2.5" style="stroke:#181818;stroke-width:0.5;" width="274" x="51.5" y="437.6094"/><ellipse cx="164.25" cy="453.6094" fill="#ADD1B2" rx="11" ry="11" style="stroke:#181818;stroke-width:1.0;"/><path d="M167.0156,449.4844 Q167.1719,449.2656 167.3594,449.1563 Q167.5469,449.0469 167.7656,449.0469 Q168.1406,449.0469 168.375,449.3047 Q168.6094,449.5625 168.6094,450.1719 L168.6094,451.625 Q168.6094,452.2344 168.375,452.5 Q168.1406,452.7656 167.7656,452.7656 Q167.4219,452.7656 167.2188,452.5625 Q167.0156,452.375 166.9063,451.8594 Q166.8594,451.5 166.6719,451.3125 Q166.3438,450.9375 165.7344,450.7188 Q165.125,450.5 164.5,450.5 Q163.7344,450.5 163.1016,450.8281 Q162.4688,451.1563 161.9766,451.9063 Q161.4844,452.6563 161.4844,453.6875 L161.4844,454.7813 Q161.4844,456.0156 162.375,456.8359 Q163.2656,457.6563 164.8594,457.6563 Q165.7969,457.6563 166.4531,457.4063 Q166.8438,457.25 167.2656,456.8125 Q167.5313,456.5469 167.6797,456.4688 Q167.8281,456.3906 168.0313,456.3906 Q168.3594,456.3906 168.6172,456.6484 Q168.875,456.9063 168.875,457.25 Q168.875,457.5938 168.5313,458 Q168.0313,458.5781 167.2344,458.9063 Q166.1563,459.3594 164.8594,459.3594 Q163.3438,459.3594 162.1406,458.7344 Q161.1563,458.2344 160.4688,457.1641 Q159.7813,456.0938 159.7813,454.8125 L159.7813,453.6563 Q159.7813,452.3281 160.3984,451.1797 Q161.0156,450.0313 162.1094,449.4141 Q163.2031,448.7969 164.4375,448.7969 Q165.1719,448.7969 165.8203,448.9609 Q166.4688,449.125 167.0156,449.4844 Z " fill="#000000"/><text fill="#000000" font-family="sans-serif" font-size="14" lengthAdjust="spacing" textLength="40" x="184.75" y="459.3379">Circuit</text><line style="stroke:#181818;stroke-width:0.5;" x1="52.5" x2="324.5" y1="469.6094" y2="469.6094"/><rect fill="none" height="6" style="stroke:#C82930;stroke-width:1.0;" width="6" x="59.5" y="480.9141"/><text fill="#000000" font-family="sans-serif" font-size="14" lengthAdjust="spacing" textLength="154" x="71.5" y="488.1426">nodes : map&lt;int, node*&gt;</text><rect fill="none" height="6" style="stroke:#C82930;stroke-width:1.0;" width="6" x="59.5" y="498.5234"/><text fill="#000000" font-family="sans-serif" font-size="14" lengthAdjust="spacing" textLength="213" x="71.5" y="505.752">nodeNameToId : map&lt;string, int&gt;;</text><rect fill="none" height="6" style="stroke:#C82930;stroke-width:1.0;" width="6" x="59.5" y="516.1328"/><text fill="#000000" font-family="sans-serif" font-size="14" lengthAdjust="spacing" textLength="140" x="71.5" y="523.3613">sortedIds : vector&lt;int&gt;</text><line style="stroke:#181818;stroke-width:0.5;" x1="52.5" x2="324.5" y1="530.4375" y2="530.4375"/><ellipse cx="62.5" cy="544.7422" fill="#84BE84" rx="3" ry="3" style="stroke:#038048;stroke-width:1.0;"/><text fill="#000000" font-family="sans-serif" font-size="14" lengthAdjust="spacing" textLength="78" x="71.5" y="548.9707">run() : result</text><ellipse cx="62.5" cy="562.3516" fill="#84BE84" rx="3" ry="3" style="stroke:#038048;stroke-width:1.0;"/><text fill="#000000" font-family="sans-serif" font-size="14" lengthAdjust="spacing" textLength="148" x="71.5" y="566.5801">addNode(node : node*)</text><ellipse cx="62.5" cy="579.9609" fill="#84BE84" rx="3" ry="3" style="stroke:#038048;stroke-width:1.0;"/><text fill="#000000" font-family="sans-serif" font-size="14" lengthAdjust="spacing" textLength="74" x="71.5" y="584.1895">sortNodes()</text><ellipse cx="62.5" cy="597.5703" fill="#84BE84" rx="3" ry="3" style="stroke:#038048;stroke-width:1.0;"/><text fill="#000000" font-family="sans-serif" font-size="14" lengthAdjust="spacing" textLength="235" x="71.5" y="601.7988">getNodeIdByName(name : string) : int</text><ellipse cx="62.5" cy="615.1797" fill="#84BE84" rx="3" ry="3" style="stroke:#038048;stroke-width:1.0;"/><text fill="#000000" font-family="sans-serif" font-size="14" lengthAdjust="spacing" text-decoration="underline" textLength="248" x="71.5" y="619.4082">createCircuit(fileName : string) : Circuit*</text></g><!--MD5=[f25fe682ca85f596f6cad3d7cdb2e1fb]
class input--><g id="elem_input"><rect codeLine="38" fill="#F1F1F1" height="32" id="input" rx="2.5" ry="2.5" style="stroke:#181818;stroke-width:0.5;" width="63" x="7" y="71.1094"/><ellipse cx="22" cy="87.1094" fill="#ADD1B2" rx="11" ry="11" style="stroke:#181818;stroke-width:1.0;"/><path d="M24.7656,82.9844 Q24.9219,82.7656 25.1094,82.6563 Q25.2969,82.5469 25.5156,82.5469 Q25.8906,82.5469 26.125,82.8047 Q26.3594,83.0625 26.3594,83.6719 L26.3594,85.125 Q26.3594,85.7344 26.125,86 Q25.8906,86.2656 25.5156,86.2656 Q25.1719,86.2656 24.9688,86.0625 Q24.7656,85.875 24.6563,85.3594 Q24.6094,85 24.4219,84.8125 Q24.0938,84.4375 23.4844,84.2188 Q22.875,84 22.25,84 Q21.4844,84 20.8516,84.3281 Q20.2188,84.6563 19.7266,85.4063 Q19.2344,86.1563 19.2344,87.1875 L19.2344,88.2813 Q19.2344,89.5156 20.125,90.3359 Q21.0156,91.1563 22.6094,91.1563 Q23.5469,91.1563 24.2031,90.9063 Q24.5938,90.75 25.0156,90.3125 Q25.2813,90.0469 25.4297,89.9688 Q25.5781,89.8906 25.7813,89.8906 Q26.1094,89.8906 26.3672,90.1484 Q26.625,90.4063 26.625,90.75 Q26.625,91.0938 26.2813,91.5 Q25.7813,92.0781 24.9844,92.4063 Q23.9063,92.8594 22.6094,92.8594 Q21.0938,92.8594 19.8906,92.2344 Q18.9063,91.7344 18.2188,90.6641 Q17.5313,89.5938 17.5313,88.3125 L17.5313,87.1563 Q17.5313,85.8281 18.1484,84.6797 Q18.7656,83.5313 19.8594,82.9141 Q20.9531,82.2969 22.1875,82.2969 Q22.9219,82.2969 23.5703,82.4609 Q24.2188,82.625 24.7656,82.9844 Z " fill="#000000"/><text fill="#000000" font-family="sans-serif" font-size="14" lengthAdjust="spacing" textLength="31" x="36" y="92.8379">Input</text></g><!--MD5=[28f8b93e95d354fc755f54e16b88a1c2]
class probe--><g id="elem_probe"><rect codeLine="40" fill="#F1F1F1" height="57.6094" id="probe" rx="2.5" ry="2.5" style="stroke:#181818;stroke-width:0.5;" width="166" x="105.5" y="58.1094"/><ellipse cx="165.25" cy="74.1094" fill="#ADD1B2" rx="11" ry="11" style="stroke:#181818;stroke-width:1.0;"/><path d="M168.0156,69.9844 Q168.1719,69.7656 168.3594,69.6563 Q168.5469,69.5469 168.7656,69.5469 Q169.1406,69.5469 169.375,69.8047 Q169.6094,70.0625 169.6094,70.6719 L169.6094,72.125 Q169.6094,72.7344 169.375,73 Q169.1406,73.2656 168.7656,73.2656 Q168.4219,73.2656 168.2188,73.0625 Q168.0156,72.875 167.9063,72.3594 Q167.8594,72 167.6719,71.8125 Q167.3438,71.4375 166.7344,71.2188 Q166.125,71 165.5,71 Q164.7344,71 164.1016,71.3281 Q163.4688,71.6563 162.9766,72.4063 Q162.4844,73.1563 162.4844,74.1875 L162.4844,75.2813 Q162.4844,76.5156 163.375,77.3359 Q164.2656,78.1563 165.8594,78.1563 Q166.7969,78.1563 167.4531,77.9063 Q167.8438,77.75 168.2656,77.3125 Q168.5313,77.0469 168.6797,76.9688 Q168.8281,76.8906 169.0313,76.8906 Q169.3594,76.8906 169.6172,77.1484 Q169.875,77.4063 169.875,77.75 Q169.875,78.0938 169.5313,78.5 Q169.0313,79.0781 168.2344,79.4063 Q167.1563,79.8594 165.8594,79.8594 Q164.3438,79.8594 163.1406,79.2344 Q162.1563,78.7344 161.4688,77.6641 Q160.7813,76.5938 160.7813,75.3125 L160.7813,74.1563 Q160.7813,72.8281 161.3984,71.6797 Q162.0156,70.5313 163.1094,69.9141 Q164.2031,69.2969 165.4375,69.2969 Q166.1719,69.2969 166.8203,69.4609 Q167.4688,69.625 168.0156,69.9844 Z " fill="#000000"/><text fill="#000000" font-family="sans-serif" font-size="14" lengthAdjust="spacing" textLength="38" x="185.75" y="79.8379">Probe</text><line style="stroke:#181818;stroke-width:0.5;" x1="106.5" x2="270.5" y1="90.1094" y2="90.1094"/><ellipse cx="116.5" cy="104.4141" fill="#84BE84" rx="3" ry="3" style="stroke:#038048;stroke-width:1.0;"/><text fill="#000000" font-family="sans-serif" font-size="14" lengthAdjust="spacing" textLength="140" x="125.5" y="108.6426">printResult(result : int)</text></g><!--MD5=[3ffcd20f5d7ccc072138805f6c37fcfd]
class nodeFactory--><g id="elem_nodeFactory"><rect codeLine="44" fill="#F1F1F1" height="83.2188" id="nodeFactory" rx="2.5" ry="2.5" style="stroke:#181818;stroke-width:0.5;" width="359" x="1302" y="45.6094"/><ellipse cx="1436.75" cy="61.6094" fill="#ADD1B2" rx="11" ry="11" style="stroke:#181818;stroke-width:1.0;"/><path d="M1439.5156,57.4844 Q1439.6719,57.2656 1439.8594,57.1563 Q1440.0469,57.0469 1440.2656,57.0469 Q1440.6406,57.0469 1440.875,57.3047 Q1441.1094,57.5625 1441.1094,58.1719 L1441.1094,59.625 Q1441.1094,60.2344 1440.875,60.5 Q1440.6406,60.7656 1440.2656,60.7656 Q1439.9219,60.7656 1439.7188,60.5625 Q1439.5156,60.375 1439.4063,59.8594 Q1439.3594,59.5 1439.1719,59.3125 Q1438.8438,58.9375 1438.2344,58.7188 Q1437.625,58.5 1437,58.5 Q1436.2344,58.5 1435.6016,58.8281 Q1434.9688,59.1563 1434.4766,59.9063 Q1433.9844,60.6563 1433.9844,61.6875 L1433.9844,62.7813 Q1433.9844,64.0156 1434.875,64.8359 Q1435.7656,65.6563 1437.3594,65.6563 Q1438.2969,65.6563 1438.9531,65.4063 Q1439.3438,65.25 1439.7656,64.8125 Q1440.0313,64.5469 1440.1797,64.4688 Q1440.3281,64.3906 1440.5313,64.3906 Q1440.8594,64.3906 1441.1172,64.6484 Q1441.375,64.9063 1441.375,65.25 Q1441.375,65.5938 1441.0313,66 Q1440.5313,66.5781 1439.7344,66.9063 Q1438.6563,67.3594 1437.3594,67.3594 Q1435.8438,67.3594 1434.6406,66.7344 Q1433.6563,66.2344 1432.9688,65.1641 Q1432.2813,64.0938 1432.2813,62.8125 L1432.2813,61.6563 Q1432.2813,60.3281 1432.8984,59.1797 Q1433.5156,58.0313 1434.6094,57.4141 Q1435.7031,56.7969 1436.9375,56.7969 Q1437.6719,56.7969 1438.3203,56.9609 Q1438.9688,57.125 1439.5156,57.4844 Z " fill="#000000"/><text fill="#000000" font-family="sans-serif" font-size="14" lengthAdjust="spacing" textLength="81" x="1457.25" y="67.3379">NodeFactory</text><line style="stroke:#181818;stroke-width:0.5;" x1="1303" x2="1660" y1="77.6094" y2="77.6094"/><ellipse cx="1313" cy="91.9141" fill="none" rx="3" ry="3" style="stroke:#038048;stroke-width:1.0;"/><text fill="#000000" font-family="sans-serif" font-size="14" lengthAdjust="spacing" text-decoration="underline" textLength="151" x="1322" y="96.1426">instance : NodeFactory*</text><line style="stroke:#181818;stroke-width:0.5;" x1="1303" x2="1660" y1="103.2188" y2="103.2188"/><ellipse cx="1313" cy="117.5234" fill="#84BE84" rx="3" ry="3" style="stroke:#038048;stroke-width:1.0;"/><text fill="#000000" font-family="sans-serif" font-size="14" lengthAdjust="spacing" text-decoration="underline" textLength="333" x="1322" y="121.752">createNode(nodeType : string, name : string) : node*</text></g><!--MD5=[300c0950b9eb59f49a4c2d16af59c2d2]
class fileReader--><g id="elem_fileReader"><rect codeLine="49" fill="#F1F1F1" height="57.6094" id="fileReader" rx="2.5" ry="2.5" style="stroke:#181818;stroke-width:0.5;" width="246" x="1696.5" y="58.1094"/><ellipse cx="1780.25" cy="74.1094" fill="#ADD1B2" rx="11" ry="11" style="stroke:#181818;stroke-width:1.0;"/><path d="M1783.0156,69.9844 Q1783.1719,69.7656 1783.3594,69.6563 Q1783.5469,69.5469 1783.7656,69.5469 Q1784.1406,69.5469 1784.375,69.8047 Q1784.6094,70.0625 1784.6094,70.6719 L1784.6094,72.125 Q1784.6094,72.7344 1784.375,73 Q1784.1406,73.2656 1783.7656,73.2656 Q1783.4219,73.2656 1783.2188,73.0625 Q1783.0156,72.875 1782.9063,72.3594 Q1782.8594,72 1782.6719,71.8125 Q1782.3438,71.4375 1781.7344,71.2188 Q1781.125,71 1780.5,71 Q1779.7344,71 1779.1016,71.3281 Q1778.4688,71.6563 1777.9766,72.4063 Q1777.4844,73.1563 1777.4844,74.1875 L1777.4844,75.2813 Q1777.4844,76.5156 1778.375,77.3359 Q1779.2656,78.1563 1780.8594,78.1563 Q1781.7969,78.1563 1782.4531,77.9063 Q1782.8438,77.75 1783.2656,77.3125 Q1783.5313,77.0469 1783.6797,76.9688 Q1783.8281,76.8906 1784.0313,76.8906 Q1784.3594,76.8906 1784.6172,77.1484 Q1784.875,77.4063 1784.875,77.75 Q1784.875,78.0938 1784.5313,78.5 Q1784.0313,79.0781 1783.2344,79.4063 Q1782.1563,79.8594 1780.8594,79.8594 Q1779.3438,79.8594 1778.1406,79.2344 Q1777.1563,78.7344 1776.4688,77.6641 Q1775.7813,76.5938 1775.7813,75.3125 L1775.7813,74.1563 Q1775.7813,72.8281 1776.3984,71.6797 Q1777.0156,70.5313 1778.1094,69.9141 Q1779.2031,69.2969 1780.4375,69.2969 Q1781.1719,69.2969 1781.8203,69.4609 Q1782.4688,69.625 1783.0156,69.9844 Z " fill="#000000"/><text fill="#000000" font-family="sans-serif" font-size="14" lengthAdjust="spacing" textLength="70" x="1800.75" y="79.8379">FileReader</text><line style="stroke:#181818;stroke-width:0.5;" x1="1697.5" x2="1941.5" y1="90.1094" y2="90.1094"/><ellipse cx="1707.5" cy="104.4141" fill="#84BE84" rx="3" ry="3" style="stroke:#038048;stroke-width:1.0;"/><text fill="#000000" font-family="sans-serif" font-size="14" lengthAdjust="spacing" text-decoration="underline" textLength="220" x="1716.5" y="108.6426">readFile(fileName : string) : Circuit*</text></g><!--MD5=[0f067d4aa4a44a0f88821ed2d26b6d9e]
class andFunction--><g id="elem_andFunction"><rect fill="#F1F1F1" height="32" id="andFunction" rx="2.5" ry="2.5" style="stroke:#181818;stroke-width:0.5;" width="111" x="439" y="71.1094"/><ellipse cx="454" cy="87.1094" fill="#ADD1B2" rx="11" ry="11" style="stroke:#181818;stroke-width:1.0;"/><path d="M456.7656,82.9844 Q456.9219,82.7656 457.1094,82.6563 Q457.2969,82.5469 457.5156,82.5469 Q457.8906,82.5469 458.125,82.8047 Q458.3594,83.0625 458.3594,83.6719 L458.3594,85.125 Q458.3594,85.7344 458.125,86 Q457.8906,86.2656 457.5156,86.2656 Q457.1719,86.2656 456.9688,86.0625 Q456.7656,85.875 456.6563,85.3594 Q456.6094,85 456.4219,84.8125 Q456.0938,84.4375 455.4844,84.2188 Q454.875,84 454.25,84 Q453.4844,84 452.8516,84.3281 Q452.2188,84.6563 451.7266,85.4063 Q451.2344,86.1563 451.2344,87.1875 L451.2344,88.2813 Q451.2344,89.5156 452.125,90.3359 Q453.0156,91.1563 454.6094,91.1563 Q455.5469,91.1563 456.2031,90.9063 Q456.5938,90.75 457.0156,90.3125 Q457.2813,90.0469 457.4297,89.9688 Q457.5781,89.8906 457.7813,89.8906 Q458.1094,89.8906 458.3672,90.1484 Q458.625,90.4063 458.625,90.75 Q458.625,91.0938 458.2813,91.5 Q457.7813,92.0781 456.9844,92.4063 Q455.9063,92.8594 454.6094,92.8594 Q453.0938,92.8594 451.8906,92.2344 Q450.9063,91.7344 450.2188,90.6641 Q449.5313,89.5938 449.5313,88.3125 L449.5313,87.1563 Q449.5313,85.8281 450.1484,84.6797 Q450.7656,83.5313 451.8594,82.9141 Q452.9531,82.2969 454.1875,82.2969 Q454.9219,82.2969 455.5703,82.4609 Q456.2188,82.625 456.7656,82.9844 Z " fill="#000000"/><text fill="#000000" font-family="sans-serif" font-size="14" lengthAdjust="spacing" textLength="79" x="468" y="92.8379">andFunction</text></g><!--MD5=[fa1a67c867a23a11069d4b5153d9b31a]
class orFunction--><g id="elem_orFunction"><rect fill="#F1F1F1" height="32" id="orFunction" rx="2.5" ry="2.5" style="stroke:#181818;stroke-width:0.5;" width="100" x="585.5" y="71.1094"/><ellipse cx="600.5" cy="87.1094" fill="#ADD1B2" rx="11" ry="11" style="stroke:#181818;stroke-width:1.0;"/><path d="M603.2656,82.9844 Q603.4219,82.7656 603.6094,82.6563 Q603.7969,82.5469 604.0156,82.5469 Q604.3906,82.5469 604.625,82.8047 Q604.8594,83.0625 604.8594,83.6719 L604.8594,85.125 Q604.8594,85.7344 604.625,86 Q604.3906,86.2656 604.0156,86.2656 Q603.6719,86.2656 603.4688,86.0625 Q603.2656,85.875 603.1563,85.3594 Q603.1094,85 602.9219,84.8125 Q602.5938,84.4375 601.9844,84.2188 Q601.375,84 600.75,84 Q599.9844,84 599.3516,84.3281 Q598.7188,84.6563 598.2266,85.4063 Q597.7344,86.1563 597.7344,87.1875 L597.7344,88.2813 Q597.7344,89.5156 598.625,90.3359 Q599.5156,91.1563 601.1094,91.1563 Q602.0469,91.1563 602.7031,90.9063 Q603.0938,90.75 603.5156,90.3125 Q603.7813,90.0469 603.9297,89.9688 Q604.0781,89.8906 604.2813,89.8906 Q604.6094,89.8906 604.8672,90.1484 Q605.125,90.4063 605.125,90.75 Q605.125,91.0938 604.7813,91.5 Q604.2813,92.0781 603.4844,92.4063 Q602.4063,92.8594 601.1094,92.8594 Q599.5938,92.8594 598.3906,92.2344 Q597.4063,91.7344 596.7188,90.6641 Q596.0313,89.5938 596.0313,88.3125 L596.0313,87.1563 Q596.0313,85.8281 596.6484,84.6797 Q597.2656,83.5313 598.3594,82.9141 Q599.4531,82.2969 600.6875,82.2969 Q601.4219,82.2969 602.0703,82.4609 Q602.7188,82.625 603.2656,82.9844 Z " fill="#000000"/><text fill="#000000" font-family="sans-serif" font-size="14" lengthAdjust="spacing" textLength="68" x="614.5" y="92.8379">orFunction</text></g><!--MD5=[e955379684b7eab296fcb188820af3a4]
class notFunction--><g id="elem_notFunction"><rect fill="#F1F1F1" height="32" id="notFunction" rx="2.5" ry="2.5" style="stroke:#181818;stroke-width:0.5;" width="107" x="721" y="71.1094"/><ellipse cx="736" cy="87.1094" fill="#ADD1B2" rx="11" ry="11" style="stroke:#181818;stroke-width:1.0;"/><path d="M738.7656,82.9844 Q738.9219,82.7656 739.1094,82.6563 Q739.2969,82.5469 739.5156,82.5469 Q739.8906,82.5469 740.125,82.8047 Q740.3594,83.0625 740.3594,83.6719 L740.3594,85.125 Q740.3594,85.7344 740.125,86 Q739.8906,86.2656 739.5156,86.2656 Q739.1719,86.2656 738.9688,86.0625 Q738.7656,85.875 738.6563,85.3594 Q738.6094,85 738.4219,84.8125 Q738.0938,84.4375 737.4844,84.2188 Q736.875,84 736.25,84 Q735.4844,84 734.8516,84.3281 Q734.2188,84.6563 733.7266,85.4063 Q733.2344,86.1563 733.2344,87.1875 L733.2344,88.2813 Q733.2344,89.5156 734.125,90.3359 Q735.0156,91.1563 736.6094,91.1563 Q737.5469,91.1563 738.2031,90.9063 Q738.5938,90.75 739.0156,90.3125 Q739.2813,90.0469 739.4297,89.9688 Q739.5781,89.8906 739.7813,89.8906 Q740.1094,89.8906 740.3672,90.1484 Q740.625,90.4063 740.625,90.75 Q740.625,91.0938 740.2813,91.5 Q739.7813,92.0781 738.9844,92.4063 Q737.9063,92.8594 736.6094,92.8594 Q735.0938,92.8594 733.8906,92.2344 Q732.9063,91.7344 732.2188,90.6641 Q731.5313,89.5938 731.5313,88.3125 L731.5313,87.1563 Q731.5313,85.8281 732.1484,84.6797 Q732.7656,83.5313 733.8594,82.9141 Q734.9531,82.2969 736.1875,82.2969 Q736.9219,82.2969 737.5703,82.4609 Q738.2188,82.625 738.7656,82.9844 Z " fill="#000000"/><text fill="#000000" font-family="sans-serif" font-size="14" lengthAdjust="spacing" textLength="75" x="750" y="92.8379">notFunction</text></g><!--MD5=[2a4efede861c230d40970cbace16417e]
class nandFunction--><g id="elem_nandFunction"><rect fill="#F1F1F1" height="32" id="nandFunction" rx="2.5" ry="2.5" style="stroke:#181818;stroke-width:0.5;" width="119" x="863" y="71.1094"/><ellipse cx="878" cy="87.1094" fill="#ADD1B2" rx="11" ry="11" style="stroke:#181818;stroke-width:1.0;"/><path d="M880.7656,82.9844 Q880.9219,82.7656 881.1094,82.6563 Q881.2969,82.5469 881.5156,82.5469 Q881.8906,82.5469 882.125,82.8047 Q882.3594,83.0625 882.3594,83.6719 L882.3594,85.125 Q882.3594,85.7344 882.125,86 Q881.8906,86.2656 881.5156,86.2656 Q881.1719,86.2656 880.9688,86.0625 Q880.7656,85.875 880.6563,85.3594 Q880.6094,85 880.4219,84.8125 Q880.0938,84.4375 879.4844,84.2188 Q878.875,84 878.25,84 Q877.4844,84 876.8516,84.3281 Q876.2188,84.6563 875.7266,85.4063 Q875.2344,86.1563 875.2344,87.1875 L875.2344,88.2813 Q875.2344,89.5156 876.125,90.3359 Q877.0156,91.1563 878.6094,91.1563 Q879.5469,91.1563 880.2031,90.9063 Q880.5938,90.75 881.0156,90.3125 Q881.2813,90.0469 881.4297,89.9688 Q881.5781,89.8906 881.7813,89.8906 Q882.1094,89.8906 882.3672,90.1484 Q882.625,90.4063 882.625,90.75 Q882.625,91.0938 882.2813,91.5 Q881.7813,92.0781 880.9844,92.4063 Q879.9063,92.8594 878.6094,92.8594 Q877.0938,92.8594 875.8906,92.2344 Q874.9063,91.7344 874.2188,90.6641 Q873.5313,89.5938 873.5313,88.3125 L873.5313,87.1563 Q873.5313,85.8281 874.1484,84.6797 Q874.7656,83.5313 875.8594,82.9141 Q876.9531,82.2969 878.1875,82.2969 Q878.9219,82.2969 879.5703,82.4609 Q880.2188,82.625 880.7656,82.9844 Z " fill="#000000"/><text fill="#000000" font-family="sans-serif" font-size="14" lengthAdjust="spacing" textLength="87" x="892" y="92.8379">nandFunction</text></g><!--MD5=[cbc2ee107d515bccc3decf4e276085f2]
class norFunction--><g id="elem_norFunction"><rect fill="#F1F1F1" height="32" id="norFunction" rx="2.5" ry="2.5" style="stroke:#181818;stroke-width:0.5;" width="108" x="1017.5" y="71.1094"/><ellipse cx="1032.5" cy="87.1094" fill="#ADD1B2" rx="11" ry="11" style="stroke:#181818;stroke-width:1.0;"/><path d="M1035.2656,82.9844 Q1035.4219,82.7656 1035.6094,82.6563 Q1035.7969,82.5469 1036.0156,82.5469 Q1036.3906,82.5469 1036.625,82.8047 Q1036.8594,83.0625 1036.8594,83.6719 L1036.8594,85.125 Q1036.8594,85.7344 1036.625,86 Q1036.3906,86.2656 1036.0156,86.2656 Q1035.6719,86.2656 1035.4688,86.0625 Q1035.2656,85.875 1035.1563,85.3594 Q1035.1094,85 1034.9219,84.8125 Q1034.5938,84.4375 1033.9844,84.2188 Q1033.375,84 1032.75,84 Q1031.9844,84 1031.3516,84.3281 Q1030.7188,84.6563 1030.2266,85.4063 Q1029.7344,86.1563 1029.7344,87.1875 L1029.7344,88.2813 Q1029.7344,89.5156 1030.625,90.3359 Q1031.5156,91.1563 1033.1094,91.1563 Q1034.0469,91.1563 1034.7031,90.9063 Q1035.0938,90.75 1035.5156,90.3125 Q1035.7813,90.0469 1035.9297,89.9688 Q1036.0781,89.8906 1036.2813,89.8906 Q1036.6094,89.8906 1036.8672,90.1484 Q1037.125,90.4063 1037.125,90.75 Q1037.125,91.0938 1036.7813,91.5 Q1036.2813,92.0781 1035.4844,92.4063 Q1034.4063,92.8594 1033.1094,92.8594 Q1031.5938,92.8594 1030.3906,92.2344 Q1029.4063,91.7344 1028.7188,90.6641 Q1028.0313,89.5938 1028.0313,88.3125 L1028.0313,87.1563 Q1028.0313,85.8281 1028.6484,84.6797 Q1029.2656,83.5313 1030.3594,82.9141 Q1031.4531,82.2969 1032.6875,82.2969 Q1033.4219,82.2969 1034.0703,82.4609 Q1034.7188,82.625 1035.2656,82.9844 Z " fill="#000000"/><text fill="#000000" font-family="sans-serif" font-size="14" lengthAdjust="spacing" textLength="76" x="1046.5" y="92.8379">norFunction</text></g><!--MD5=[e3848d8232823cf53cae2b0c45ec0813]
class xorFunction--><g id="elem_xorFunction"><rect fill="#F1F1F1" height="32" id="xorFunction" rx="2.5" ry="2.5" style="stroke:#181818;stroke-width:0.5;" width="106" x="1160.5" y="71.1094"/><ellipse cx="1175.5" cy="87.1094" fill="#ADD1B2" rx="11" ry="11" style="stroke:#181818;stroke-width:1.0;"/><path d="M1178.2656,82.9844 Q1178.4219,82.7656 1178.6094,82.6563 Q1178.7969,82.5469 1179.0156,82.5469 Q1179.3906,82.5469 1179.625,82.8047 Q1179.8594,83.0625 1179.8594,83.6719 L1179.8594,85.125 Q1179.8594,85.7344 1179.625,86 Q1179.3906,86.2656 1179.0156,86.2656 Q1178.6719,86.2656 1178.4688,86.0625 Q1178.2656,85.875 1178.1563,85.3594 Q1178.1094,85 1177.9219,84.8125 Q1177.5938,84.4375 1176.9844,84.2188 Q1176.375,84 1175.75,84 Q1174.9844,84 1174.3516,84.3281 Q1173.7188,84.6563 1173.2266,85.4063 Q1172.7344,86.1563 1172.7344,87.1875 L1172.7344,88.2813 Q1172.7344,89.5156 1173.625,90.3359 Q1174.5156,91.1563 1176.1094,91.1563 Q1177.0469,91.1563 1177.7031,90.9063 Q1178.0938,90.75 1178.5156,90.3125 Q1178.7813,90.0469 1178.9297,89.9688 Q1179.0781,89.8906 1179.2813,89.8906 Q1179.6094,89.8906 1179.8672,90.1484 Q1180.125,90.4063 1180.125,90.75 Q1180.125,91.0938 1179.7813,91.5 Q1179.2813,92.0781 1178.4844,92.4063 Q1177.4063,92.8594 1176.1094,92.8594 Q1174.5938,92.8594 1173.3906,92.2344 Q1172.4063,91.7344 1171.7188,90.6641 Q1171.0313,89.5938 1171.0313,88.3125 L1171.0313,87.1563 Q1171.0313,85.8281 1171.6484,84.6797 Q1172.2656,83.5313 1173.3594,82.9141 Q1174.4531,82.2969 1175.6875,82.2969 Q1176.4219,82.2969 1177.0703,82.4609 Q1177.7188,82.625 1178.2656,82.9844 Z " fill="#000000"/><text fill="#000000" font-family="sans-serif" font-size="14" lengthAdjust="spacing" textLength="74" x="1189.5" y="92.8379">xorFunction</text></g><!--MD5=[2249319b84a8ff8910adc7bfcf919aa9]
reverse link node to circuit--><g id="link_node_circuit"><path codeLine="53" d="M188.5,391.2394 C188.5,406.6194 188.5,422.3494 188.5,437.4394 " fill="none" id="node-backto-circuit" style="stroke:#181818;stroke-width:1.0;"/><polygon fill="#181818" points="188.5,377.8394,184.5,383.8394,188.5,389.8394,192.5,383.8394,188.5,377.8394" style="stroke:#181818;stroke-width:1.0;"/></g><!--MD5=[8b505fb43d7107e2741092896175508e]
link input to node--><g id="link_input_node"><path codeLine="55" d="M50.27,103.3294 C62.39,119.0094 82.45,144.9594 103.58,172.2794 " fill="none" id="input-to-node" style="stroke:#181818;stroke-width:1.0;"/><polygon fill="none" points="109.4,168.3594,116.1,188.4694,98.32,176.9294,109.4,168.3594" style="stroke:#181818;stroke-width:1.0;"/></g><!--MD5=[01419a1ee32e51285a37660357031f17]
link probe to node--><g id="link_probe_node"><path codeLine="56" d="M188.5,116.3194 C188.5,130.5894 188.5,148.9594 188.5,168.2394 " fill="none" id="probe-to-node" style="stroke:#181818;stroke-width:1.0;"/><polygon fill="none" points="195.5,168.5394,188.5,188.5394,181.5,168.5394,195.5,168.5394" style="stroke:#181818;stroke-width:1.0;"/></g><!--MD5=[5204b4942c9e2bd56e5dbdad151341f6]
link logicGate to node--><g id="link_logicGate_node"><path codeLine="57" d="M342.4,103.3294 C328.77,119.1594 306.15,145.4394 282.38,173.0494 " fill="none" id="logicGate-to-node" style="stroke:#181818;stroke-width:1.0;"/><polygon fill="none" points="287.46,177.8794,269.11,188.4694,276.85,168.7394,287.46,177.8794" style="stroke:#181818;stroke-width:1.0;"/></g><!--MD5=[5ce8026c384cea08f35a2e53b136e9d1]
reverse link logicGate to logicFunction--><g id="link_logicGate_logicFunction"><path codeLine="59" d="M389.53,110.2394 C399.65,116.4794 410.87,123.0694 421.5,128.6094 C532.03,186.1894 668.87,241.3394 735.01,267.0394 " fill="none" id="logicGate-backto-logicFunction" style="stroke:#181818;stroke-width:1.0;"/><polygon fill="#181818" points="378.25,103.1694,381.2011,109.749,388.4096,109.5554,385.4585,102.9759,378.25,103.1694" style="stroke:#181818;stroke-width:1.0;"/></g><!--MD5=[9f7eef0b64ab662d51389c0dfcabb017]
link andFunction to logicFunction--><g id="link_andFunction_logicFunction"><path codeLine="61" d="M516.47,103.3294 C563.91,136.1994 676.42,214.1494 735.98,255.4194 " fill="none" id="andFunction-to-logicFunction" style="stroke:#181818;stroke-width:1.0;"/><polygon fill="none" points="740.18,249.8094,752.63,266.9594,732.2,261.3194,740.18,249.8094" style="stroke:#181818;stroke-width:1.0;"/></g><!--MD5=[46e65eff66e5b48c3b65cac6fd67b25a]
link orFunction to logicFunction--><g id="link_orFunction_logicFunction"><path codeLine="62" d="M646.41,103.3294 C669.04,134.9194 721.52,208.1694 751.82,250.4594 " fill="none" id="orFunction-to-logicFunction" style="stroke:#181818;stroke-width:1.0;"/><polygon fill="none" points="757.69,246.6194,763.64,266.9594,746.3,254.7794,757.69,246.6194" style="stroke:#181818;stroke-width:1.0;"/></g><!--MD5=[c83be8a7f983878377ce9bf45174d864]
link notFunction to logicFunction--><g id="link_notFunction_logicFunction"><path codeLine="63" d="M774.5,103.3294 C774.5,133.9994 774.5,203.9394 774.5,246.6794 " fill="none" id="notFunction-to-logicFunction" style="stroke:#181818;stroke-width:1.0;"/><polygon fill="none" points="781.5,246.9594,774.5,266.9594,767.5,246.9594,781.5,246.9594" style="stroke:#181818;stroke-width:1.0;"/></g><!--MD5=[4b3327dcb63d164d7d889f4250cceb59]
link nandFunction to logicFunction--><g id="link_nandFunction_logicFunction"><path codeLine="64" d="M910.89,103.3294 C886.68,135.0694 830.4,208.8294 798.22,251.0194 " fill="none" id="nandFunction-to-logicFunction" style="stroke:#181818;stroke-width:1.0;"/><polygon fill="none" points="803.76,255.2994,786.06,266.9594,792.62,246.8094,803.76,255.2994" style="stroke:#181818;stroke-width:1.0;"/></g><!--MD5=[9e5965a93914beed70434cbe41e2792b]
link norFunction to logicFunction--><g id="link_norFunction_logicFunction"><path codeLine="65" d="M1048.19,103.3294 C997.66,136.3394 877.51,214.8294 814.55,255.9494 " fill="none" id="norFunction-to-logicFunction" style="stroke:#181818;stroke-width:1.0;"/><polygon fill="none" points="818.27,261.8794,797.7,266.9594,810.61,250.1594,818.27,261.8794" style="stroke:#181818;stroke-width:1.0;"/></g><!--MD5=[6fe8500ed042e7deaa4d0606d0b4ecdc]
link xorFunction to logicFunction--><g id="link_xorFunction_logicFunction"><path codeLine="66" d="M1189.31,103.1494 C1176.02,111.1494 1159.11,120.8894 1143.5,128.6094 C1037.11,181.2394 908.14,232.0694 834.27,260.0094 " fill="none" id="xorFunction-to-logicFunction" style="stroke:#181818;stroke-width:1.0;"/><polygon fill="none" points="836.58,266.6194,815.4,267.0994,831.66,253.5094,836.58,266.6194" style="stroke:#181818;stroke-width:1.0;"/></g><rect fill="none" height="12.5781" style="stroke:none;stroke-width:1.0;" width="65" x="1870.5" y="632.4844"/><text fill="#888888" font-family="sans-serif" font-size="10" lengthAdjust="spacing" textLength="65" x="1870.5" y="642.8652">20-05-11 v2.0</text><!--MD5=[e65193e94258c5660a462ace70c4298a]
@startuml classDiagram

title Circuit Simulation class diagram
right footer "20-05-11 v2.0"

hide empty members

class logicGate as "LogicGate" {
}

abstract class node as "Node" {
    - inputs : vector<bool>
    - outputs : vector<bool>
    - name : string
    - nextNodeName : string

    + propagationDelay : int
    + run() : int 
    + setValue(value : bool)
}

class logicFunction as "LogicFunction" {

}

class circuit as "Circuit" {
    'store nodes by name as identifier'
    - nodes : map<int, node*>
    - nodeNameToId : map<string, int>;
    - sortedIds : vector<int>

    + run() : result
    + addNode(node : node*)
    + sortNodes()
    + getNodeIdByName(name : string) : int
    + {static} createCircuit(fileName : string) : Circuit*
}

class input as "Input" {
}
class probe as "Probe" {
    + printResult(result : int)
}

class nodeFactory as "NodeFactory" {
    + {static} instance : NodeFactory*
    + {static} createNode(nodeType : string, name : string) : node*
}

class fileReader as "FileReader" {
    + {static} readFile(fileName : string) : Circuit*
}

node *- - circuit

input - -|> node
probe - -|> node
logicGate - -|> node

logicGate *- - logicFunction

andFunction - -|> logicFunction
orFunction - -|> logicFunction
notFunction - -|> logicFunction
nandFunction - -|> logicFunction
norFunction - -|> logicFunction
xorFunction - -|> logicFunction

@enduml

@startuml classDiagram

title Circuit Simulation class diagram
right footer "20-05-11 v2.0"

hide empty members

class logicGate as "LogicGate" {
}

abstract class node as "Node" {
    - inputs : vector<bool>
    - outputs : vector<bool>
    - name : string
    - nextNodeName : string

    + propagationDelay : int
    + run() : int 
    + setValue(value : bool)
}

class logicFunction as "LogicFunction" {

}

class circuit as "Circuit" {
    - nodes : map<int, node*>
    - nodeNameToId : map<string, int>;
    - sortedIds : vector<int>

    + run() : result
    + addNode(node : node*)
    + sortNodes()
    + getNodeIdByName(name : string) : int
    + {static} createCircuit(fileName : string) : Circuit*
}

class input as "Input" {
}
class probe as "Probe" {
    + printResult(result : int)
}

class nodeFactory as "NodeFactory" {
    + {static} instance : NodeFactory*
    + {static} createNode(nodeType : string, name : string) : node*
}

class fileReader as "FileReader" {
    + {static} readFile(fileName : string) : Circuit*
}

node *- - circuit

input - -|> node
probe - -|> node
logicGate - -|> node

logicGate *- - logicFunction

andFunction - -|> logicFunction
orFunction - -|> logicFunction
notFunction - -|> logicFunction
nandFunction - -|> logicFunction
norFunction - -|> logicFunction
xorFunction - -|> logicFunction

@enduml

PlantUML version 1.2022.7(Mon Aug 22 19:01:30 CEST 2022)
(GPL source distribution)
Java Runtime: Java(TM) SE Runtime Environment
JVM: Java HotSpot(TM) 64-Bit Server VM
Default Encoding: Cp1252
Language: en
Country: US
--></g></svg>