<?xml version="1.0" encoding="UTF-8" standalone="no"?><svg xmlns="http://www.w3.org/2000/svg" xmlns:xlink="http://www.w3.org/1999/xlink" contentStyleType="text/css" height="707px" preserveAspectRatio="none" style="width:2354px;height:707px;background:#FFFFFF;" version="1.1" viewBox="0 0 2354 707" width="2354px" zoomAndPan="magnify"><defs/><g><rect fill="none" height="27.6094" id="_title" style="stroke:none;stroke-width:1.0;" width="233" x="1053.5" y="5"/><text fill="#000000" font-family="sans-serif" font-size="14" font-weight="bold" lengthAdjust="spacing" textLength="223" x="1058.5" y="24.5332">Circuit Simulation class diagram</text><!--MD5=[005f6441e5b45dba43c18624cb914bad]
class node--><g id="elem_node"><rect codeLine="7" fill="#F1F1F1" height="188.875" id="node" rx="2.5" ry="2.5" style="stroke:#181818;stroke-width:0.5;" width="196" x="98" y="45.6094"/><ellipse cx="174.75" cy="61.6094" fill="#A9DCDF" rx="11" ry="11" style="stroke:#181818;stroke-width:1.0;"/><path d="M176.9375,63.375 L172.7969,63.375 L172.375,64.4063 L172.7969,64.4063 Q173.4063,64.4063 173.6719,64.6406 Q173.9375,64.875 173.9375,65.2656 Q173.9375,65.6406 173.6719,65.875 Q173.4063,66.1094 172.7969,66.1094 L170.5,66.1094 Q169.8906,66.1094 169.6328,65.875 Q169.375,65.6406 169.375,65.25 Q169.375,64.875 169.6484,64.6328 Q169.9219,64.3906 170.5469,64.4063 L173.2188,57.75 L172.1094,57.75 Q171.5,57.75 171.2344,57.5156 Q170.9688,57.2813 170.9688,56.8906 Q170.9688,56.5156 171.2344,56.2813 Q171.5,56.0469 172.1094,56.0469 L175.7813,56.0469 L179.1719,64.4063 Q179.7656,64.4063 179.9531,64.5469 Q180.3438,64.8125 180.3438,65.2656 Q180.3438,65.6406 180.0859,65.875 Q179.8281,66.1094 179.2188,66.1094 L176.9219,66.1094 Q176.3125,66.1094 176.0469,65.875 Q175.7813,65.6406 175.7813,65.25 Q175.7813,64.875 176.0469,64.6406 Q176.3125,64.4063 176.9219,64.4063 L177.3438,64.4063 L176.9375,63.375 Z M176.2188,61.6719 L174.8594,58.2969 L173.4844,61.6719 L176.2188,61.6719 Z " fill="#000000"/><text fill="#000000" font-family="sans-serif" font-size="14" font-style="italic" lengthAdjust="spacing" textLength="34" x="195.25" y="67.3379">Node</text><line style="stroke:#181818;stroke-width:0.5;" x1="99" x2="293" y1="77.6094" y2="77.6094"/><rect fill="none" height="6" style="stroke:#C82930;stroke-width:1.0;" width="6" x="106" y="88.9141"/><text fill="#000000" font-family="sans-serif" font-size="14" lengthAdjust="spacing" textLength="132" x="118" y="96.1426">inputs : vector&lt;bool&gt;</text><rect fill="none" height="6" style="stroke:#C82930;stroke-width:1.0;" width="6" x="106" y="106.5234"/><text fill="#000000" font-family="sans-serif" font-size="14" lengthAdjust="spacing" textLength="79" x="118" y="113.752">output : bool</text><rect fill="none" height="6" style="stroke:#C82930;stroke-width:1.0;" width="6" x="106" y="124.1328"/><text fill="#000000" font-family="sans-serif" font-size="14" lengthAdjust="spacing" textLength="82" x="118" y="131.3613">name : string</text><rect fill="none" height="6" style="stroke:#C82930;stroke-width:1.0;" width="6" x="106" y="141.7422"/><text fill="#000000" font-family="sans-serif" font-size="14" lengthAdjust="spacing" textLength="170" x="118" y="148.9707">nextNodes : vector&lt;node*&gt;</text><text fill="#000000" font-family="sans-serif" font-size="14" lengthAdjust="spacing" textLength="4" x="118" y="166.5801"> </text><ellipse cx="109" cy="179.9609" fill="none" rx="3" ry="3" style="stroke:#038048;stroke-width:1.0;"/><text fill="#000000" font-family="sans-serif" font-size="14" lengthAdjust="spacing" textLength="139" x="118" y="184.1895">propagationDelay : int</text><line style="stroke:#181818;stroke-width:0.5;" x1="99" x2="293" y1="191.2656" y2="191.2656"/><ellipse cx="109" cy="205.5703" fill="#84BE84" rx="3" ry="3" style="stroke:#038048;stroke-width:1.0;"/><text fill="#000000" font-family="sans-serif" font-size="14" lengthAdjust="spacing" textLength="58" x="118" y="209.7988">run() : int</text><ellipse cx="109" cy="223.1797" fill="#84BE84" rx="3" ry="3" style="stroke:#038048;stroke-width:1.0;"/><text fill="#000000" font-family="sans-serif" font-size="14" lengthAdjust="spacing" textLength="138" x="118" y="227.4082">setValue(value : bool)</text></g><!--MD5=[c2941dae2de927ab2932ad1f04ba5180]
class logicFunction--><g id="elem_logicFunction"><rect codeLine="18" fill="#F1F1F1" height="153.6563" id="logicFunction" rx="2.5" ry="2.5" style="stroke:#181818;stroke-width:0.5;" width="256" x="860" y="312.6094"/><ellipse cx="939.25" cy="328.6094" fill="#ADD1B2" rx="11" ry="11" style="stroke:#181818;stroke-width:1.0;"/><path d="M942.0156,324.4844 Q942.1719,324.2656 942.3594,324.1563 Q942.5469,324.0469 942.7656,324.0469 Q943.1406,324.0469 943.375,324.3047 Q943.6094,324.5625 943.6094,325.1719 L943.6094,326.625 Q943.6094,327.2344 943.375,327.5 Q943.1406,327.7656 942.7656,327.7656 Q942.4219,327.7656 942.2188,327.5625 Q942.0156,327.375 941.9063,326.8594 Q941.8594,326.5 941.6719,326.3125 Q941.3438,325.9375 940.7344,325.7188 Q940.125,325.5 939.5,325.5 Q938.7344,325.5 938.1016,325.8281 Q937.4688,326.1563 936.9766,326.9063 Q936.4844,327.6563 936.4844,328.6875 L936.4844,329.7813 Q936.4844,331.0156 937.375,331.8359 Q938.2656,332.6563 939.8594,332.6563 Q940.7969,332.6563 941.4531,332.4063 Q941.8438,332.25 942.2656,331.8125 Q942.5313,331.5469 942.6797,331.4688 Q942.8281,331.3906 943.0313,331.3906 Q943.3594,331.3906 943.6172,331.6484 Q943.875,331.9063 943.875,332.25 Q943.875,332.5938 943.5313,333 Q943.0313,333.5781 942.2344,333.9063 Q941.1563,334.3594 939.8594,334.3594 Q938.3438,334.3594 937.1406,333.7344 Q936.1563,333.2344 935.4688,332.1641 Q934.7813,331.0938 934.7813,329.8125 L934.7813,328.6563 Q934.7813,327.3281 935.3984,326.1797 Q936.0156,325.0313 937.1094,324.4141 Q938.2031,323.7969 939.4375,323.7969 Q940.1719,323.7969 940.8203,323.9609 Q941.4688,324.125 942.0156,324.4844 Z " fill="#000000"/><text fill="#000000" font-family="sans-serif" font-size="14" lengthAdjust="spacing" textLength="89" x="959.75" y="334.3379">LogicFunction</text><line style="stroke:#181818;stroke-width:0.5;" x1="861" x2="1115" y1="344.6094" y2="344.6094"/><rect fill="none" height="6" style="stroke:#C82930;stroke-width:1.0;" width="6" x="868" y="355.9141"/><text fill="#000000" font-family="sans-serif" font-size="14" lengthAdjust="spacing" textLength="58" x="880" y="363.1426">id : string</text><line style="stroke:#181818;stroke-width:0.5;" x1="861" x2="1115" y1="370.2188" y2="370.2188"/><rect fill="#F24D5C" height="6" style="stroke:#C82930;stroke-width:1.0;" width="6" x="868" y="381.5234"/><text fill="#000000" font-family="sans-serif" font-size="14" lengthAdjust="spacing" textLength="99" x="880" y="388.752">LogicFunction()</text><rect fill="#F24D5C" height="6" style="stroke:#C82930;stroke-width:1.0;" width="6" x="868" y="399.1328"/><text fill="#000000" font-family="sans-serif" font-size="14" lengthAdjust="spacing" textLength="157" x="880" y="406.3613">LogicFunction(id : string)</text><ellipse cx="871" cy="419.7422" fill="#84BE84" rx="3" ry="3" style="stroke:#038048;stroke-width:1.0;"/><text fill="#000000" font-family="sans-serif" font-size="14" lengthAdjust="spacing" textLength="230" x="880" y="423.9707">execute(inputs : vector&lt;bool&gt;) : bool</text><ellipse cx="871" cy="437.3516" fill="#84BE84" rx="3" ry="3" style="stroke:#038048;stroke-width:1.0;"/><text fill="#000000" font-family="sans-serif" font-size="14" lengthAdjust="spacing" textLength="90" x="880" y="441.5801">getID() : string</text><ellipse cx="871" cy="454.9609" fill="#84BE84" rx="3" ry="3" style="stroke:#038048;stroke-width:1.0;"/><text fill="#000000" font-family="sans-serif" font-size="14" lengthAdjust="spacing" textLength="197" x="880" y="459.1895">{virtual} clone() : logicFunction*</text></g><!--MD5=[debd49d9bf91ff0febc4f51cd478ea1d]
class circuit--><g id="elem_circuit"><rect codeLine="28" fill="#F1F1F1" height="136.0469" id="circuit" rx="2.5" ry="2.5" style="stroke:#181818;stroke-width:0.5;" width="274" x="7" y="321.6094"/><ellipse cx="119.75" cy="337.6094" fill="#ADD1B2" rx="11" ry="11" style="stroke:#181818;stroke-width:1.0;"/><path d="M122.5156,333.4844 Q122.6719,333.2656 122.8594,333.1563 Q123.0469,333.0469 123.2656,333.0469 Q123.6406,333.0469 123.875,333.3047 Q124.1094,333.5625 124.1094,334.1719 L124.1094,335.625 Q124.1094,336.2344 123.875,336.5 Q123.6406,336.7656 123.2656,336.7656 Q122.9219,336.7656 122.7188,336.5625 Q122.5156,336.375 122.4063,335.8594 Q122.3594,335.5 122.1719,335.3125 Q121.8438,334.9375 121.2344,334.7188 Q120.625,334.5 120,334.5 Q119.2344,334.5 118.6016,334.8281 Q117.9688,335.1563 117.4766,335.9063 Q116.9844,336.6563 116.9844,337.6875 L116.9844,338.7813 Q116.9844,340.0156 117.875,340.8359 Q118.7656,341.6563 120.3594,341.6563 Q121.2969,341.6563 121.9531,341.4063 Q122.3438,341.25 122.7656,340.8125 Q123.0313,340.5469 123.1797,340.4688 Q123.3281,340.3906 123.5313,340.3906 Q123.8594,340.3906 124.1172,340.6484 Q124.375,340.9063 124.375,341.25 Q124.375,341.5938 124.0313,342 Q123.5313,342.5781 122.7344,342.9063 Q121.6563,343.3594 120.3594,343.3594 Q118.8438,343.3594 117.6406,342.7344 Q116.6563,342.2344 115.9688,341.1641 Q115.2813,340.0938 115.2813,338.8125 L115.2813,337.6563 Q115.2813,336.3281 115.8984,335.1797 Q116.5156,334.0313 117.6094,333.4141 Q118.7031,332.7969 119.9375,332.7969 Q120.6719,332.7969 121.3203,332.9609 Q121.9688,333.125 122.5156,333.4844 Z " fill="#000000"/><text fill="#000000" font-family="sans-serif" font-size="14" lengthAdjust="spacing" textLength="40" x="140.25" y="343.3379">Circuit</text><line style="stroke:#181818;stroke-width:0.5;" x1="8" x2="280" y1="353.6094" y2="353.6094"/><rect fill="none" height="6" style="stroke:#C82930;stroke-width:1.0;" width="6" x="15" y="364.9141"/><text fill="#000000" font-family="sans-serif" font-size="14" lengthAdjust="spacing" textLength="147" x="27" y="372.1426">nodes : vector&lt;node*&gt;;</text><rect fill="none" height="6" style="stroke:#C82930;stroke-width:1.0;" width="6" x="15" y="382.5234"/><text fill="#000000" font-family="sans-serif" font-size="14" lengthAdjust="spacing" textLength="184" x="27" y="389.752">sortedNodes : vector&lt;node*&gt;</text><line style="stroke:#181818;stroke-width:0.5;" x1="8" x2="280" y1="396.8281" y2="396.8281"/><ellipse cx="18" cy="411.1328" fill="#84BE84" rx="3" ry="3" style="stroke:#038048;stroke-width:1.0;"/><text fill="#000000" font-family="sans-serif" font-size="14" lengthAdjust="spacing" textLength="78" x="27" y="415.3613">run() : result</text><ellipse cx="18" cy="428.7422" fill="#84BE84" rx="3" ry="3" style="stroke:#038048;stroke-width:1.0;"/><text fill="#000000" font-family="sans-serif" font-size="14" lengthAdjust="spacing" textLength="74" x="27" y="432.9707">sortNodes()</text><ellipse cx="18" cy="446.3516" fill="#84BE84" rx="3" ry="3" style="stroke:#038048;stroke-width:1.0;"/><text fill="#000000" font-family="sans-serif" font-size="14" lengthAdjust="spacing" text-decoration="underline" textLength="248" x="27" y="450.5801">createCircuit(fileName : string) : Circuit*</text></g><!--MD5=[3ffcd20f5d7ccc072138805f6c37fcfd]
class nodeFactory--><g id="elem_nodeFactory"><rect codeLine="37" fill="#F1F1F1" height="136.0469" id="nodeFactory" rx="2.5" ry="2.5" style="stroke:#181818;stroke-width:0.5;" width="326" x="200" y="544.6094"/><ellipse cx="318.25" cy="560.6094" fill="#ADD1B2" rx="11" ry="11" style="stroke:#181818;stroke-width:1.0;"/><path d="M321.0156,556.4844 Q321.1719,556.2656 321.3594,556.1563 Q321.5469,556.0469 321.7656,556.0469 Q322.1406,556.0469 322.375,556.3047 Q322.6094,556.5625 322.6094,557.1719 L322.6094,558.625 Q322.6094,559.2344 322.375,559.5 Q322.1406,559.7656 321.7656,559.7656 Q321.4219,559.7656 321.2188,559.5625 Q321.0156,559.375 320.9063,558.8594 Q320.8594,558.5 320.6719,558.3125 Q320.3438,557.9375 319.7344,557.7188 Q319.125,557.5 318.5,557.5 Q317.7344,557.5 317.1016,557.8281 Q316.4688,558.1563 315.9766,558.9063 Q315.4844,559.6563 315.4844,560.6875 L315.4844,561.7813 Q315.4844,563.0156 316.375,563.8359 Q317.2656,564.6563 318.8594,564.6563 Q319.7969,564.6563 320.4531,564.4063 Q320.8438,564.25 321.2656,563.8125 Q321.5313,563.5469 321.6797,563.4688 Q321.8281,563.3906 322.0313,563.3906 Q322.3594,563.3906 322.6172,563.6484 Q322.875,563.9063 322.875,564.25 Q322.875,564.5938 322.5313,565 Q322.0313,565.5781 321.2344,565.9063 Q320.1563,566.3594 318.8594,566.3594 Q317.3438,566.3594 316.1406,565.7344 Q315.1563,565.2344 314.4688,564.1641 Q313.7813,563.0938 313.7813,561.8125 L313.7813,560.6563 Q313.7813,559.3281 314.3984,558.1797 Q315.0156,557.0313 316.1094,556.4141 Q317.2031,555.7969 318.4375,555.7969 Q319.1719,555.7969 319.8203,555.9609 Q320.4688,556.125 321.0156,556.4844 Z " fill="#000000"/><text fill="#000000" font-family="sans-serif" font-size="14" lengthAdjust="spacing" textLength="81" x="338.75" y="566.3379">NodeFactory</text><line style="stroke:#181818;stroke-width:0.5;" x1="201" x2="525" y1="576.6094" y2="576.6094"/><rect fill="none" height="6" style="stroke:#C82930;stroke-width:1.0;" width="6" x="208" y="587.9141"/><text fill="#000000" font-family="sans-serif" font-size="14" lengthAdjust="spacing" text-decoration="underline" textLength="151" x="220" y="595.1426">instance : NodeFactory*</text><line style="stroke:#181818;stroke-width:0.5;" x1="201" x2="525" y1="602.2188" y2="602.2188"/><rect fill="#F24D5C" height="6" style="stroke:#C82930;stroke-width:1.0;" width="6" x="208" y="613.5234"/><text fill="#000000" font-family="sans-serif" font-size="14" lengthAdjust="spacing" textLength="91" x="220" y="620.752">NodeFactory()</text><ellipse cx="211" cy="634.1328" fill="#84BE84" rx="3" ry="3" style="stroke:#038048;stroke-width:1.0;"/><text fill="#000000" font-family="sans-serif" font-size="14" lengthAdjust="spacing" text-decoration="underline" textLength="268" x="220" y="638.3613">assign(id : string, function : logicFunction*)</text><ellipse cx="211" cy="651.7422" fill="#84BE84" rx="3" ry="3" style="stroke:#038048;stroke-width:1.0;"/><text fill="#000000" font-family="sans-serif" font-size="14" lengthAdjust="spacing" text-decoration="underline" textLength="300" x="220" y="655.9707">create(nodeType : string, name : string) : node*</text><ellipse cx="211" cy="669.3516" fill="#84BE84" rx="3" ry="3" style="stroke:#038048;stroke-width:1.0;"/><text fill="#000000" font-family="sans-serif" font-size="14" lengthAdjust="spacing" text-decoration="underline" textLength="181" x="220" y="673.5801">getInstance() : NodeFactory*</text></g><!--MD5=[300c0950b9eb59f49a4c2d16af59c2d2]
class fileReader--><g id="elem_fileReader"><rect codeLine="45" fill="#F1F1F1" height="57.6094" id="fileReader" rx="2.5" ry="2.5" style="stroke:#181818;stroke-width:0.5;" width="246" x="2101" y="111.1094"/><ellipse cx="2184.75" cy="127.1094" fill="#ADD1B2" rx="11" ry="11" style="stroke:#181818;stroke-width:1.0;"/><path d="M2187.5156,122.9844 Q2187.6719,122.7656 2187.8594,122.6563 Q2188.0469,122.5469 2188.2656,122.5469 Q2188.6406,122.5469 2188.875,122.8047 Q2189.1094,123.0625 2189.1094,123.6719 L2189.1094,125.125 Q2189.1094,125.7344 2188.875,126 Q2188.6406,126.2656 2188.2656,126.2656 Q2187.9219,126.2656 2187.7188,126.0625 Q2187.5156,125.875 2187.4063,125.3594 Q2187.3594,125 2187.1719,124.8125 Q2186.8438,124.4375 2186.2344,124.2188 Q2185.625,124 2185,124 Q2184.2344,124 2183.6016,124.3281 Q2182.9688,124.6563 2182.4766,125.4063 Q2181.9844,126.1563 2181.9844,127.1875 L2181.9844,128.2813 Q2181.9844,129.5156 2182.875,130.3359 Q2183.7656,131.1563 2185.3594,131.1563 Q2186.2969,131.1563 2186.9531,130.9063 Q2187.3438,130.75 2187.7656,130.3125 Q2188.0313,130.0469 2188.1797,129.9688 Q2188.3281,129.8906 2188.5313,129.8906 Q2188.8594,129.8906 2189.1172,130.1484 Q2189.375,130.4063 2189.375,130.75 Q2189.375,131.0938 2189.0313,131.5 Q2188.5313,132.0781 2187.7344,132.4063 Q2186.6563,132.8594 2185.3594,132.8594 Q2183.8438,132.8594 2182.6406,132.2344 Q2181.6563,131.7344 2180.9688,130.6641 Q2180.2813,129.5938 2180.2813,128.3125 L2180.2813,127.1563 Q2180.2813,125.8281 2180.8984,124.6797 Q2181.5156,123.5313 2182.6094,122.9141 Q2183.7031,122.2969 2184.9375,122.2969 Q2185.6719,122.2969 2186.3203,122.4609 Q2186.9688,122.625 2187.5156,122.9844 Z " fill="#000000"/><text fill="#000000" font-family="sans-serif" font-size="14" lengthAdjust="spacing" textLength="70" x="2205.25" y="132.8379">FileReader</text><line style="stroke:#181818;stroke-width:0.5;" x1="2102" x2="2346" y1="143.1094" y2="143.1094"/><ellipse cx="2112" cy="157.4141" fill="#84BE84" rx="3" ry="3" style="stroke:#038048;stroke-width:1.0;"/><text fill="#000000" font-family="sans-serif" font-size="14" lengthAdjust="spacing" text-decoration="underline" textLength="220" x="2121" y="161.6426">readFile(fileName : string) : Circuit*</text></g><!--MD5=[0f067d4aa4a44a0f88821ed2d26b6d9e]
class andFunction--><g id="elem_andFunction"><rect codeLine="49" fill="#F1F1F1" height="57.6094" id="andFunction" rx="2.5" ry="2.5" style="stroke:#181818;stroke-width:0.5;" width="161" x="329.5" y="111.1094"/><ellipse cx="367" cy="127.1094" fill="#ADD1B2" rx="11" ry="11" style="stroke:#181818;stroke-width:1.0;"/><path d="M369.7656,122.9844 Q369.9219,122.7656 370.1094,122.6563 Q370.2969,122.5469 370.5156,122.5469 Q370.8906,122.5469 371.125,122.8047 Q371.3594,123.0625 371.3594,123.6719 L371.3594,125.125 Q371.3594,125.7344 371.125,126 Q370.8906,126.2656 370.5156,126.2656 Q370.1719,126.2656 369.9688,126.0625 Q369.7656,125.875 369.6563,125.3594 Q369.6094,125 369.4219,124.8125 Q369.0938,124.4375 368.4844,124.2188 Q367.875,124 367.25,124 Q366.4844,124 365.8516,124.3281 Q365.2188,124.6563 364.7266,125.4063 Q364.2344,126.1563 364.2344,127.1875 L364.2344,128.2813 Q364.2344,129.5156 365.125,130.3359 Q366.0156,131.1563 367.6094,131.1563 Q368.5469,131.1563 369.2031,130.9063 Q369.5938,130.75 370.0156,130.3125 Q370.2813,130.0469 370.4297,129.9688 Q370.5781,129.8906 370.7813,129.8906 Q371.1094,129.8906 371.3672,130.1484 Q371.625,130.4063 371.625,130.75 Q371.625,131.0938 371.2813,131.5 Q370.7813,132.0781 369.9844,132.4063 Q368.9063,132.8594 367.6094,132.8594 Q366.0938,132.8594 364.8906,132.2344 Q363.9063,131.7344 363.2188,130.6641 Q362.5313,129.5938 362.5313,128.3125 L362.5313,127.1563 Q362.5313,125.8281 363.1484,124.6797 Q363.7656,123.5313 364.8594,122.9141 Q365.9531,122.2969 367.1875,122.2969 Q367.9219,122.2969 368.5703,122.4609 Q369.2188,122.625 369.7656,122.9844 Z " fill="#000000"/><text fill="#000000" font-family="sans-serif" font-size="14" lengthAdjust="spacing" textLength="79" x="386" y="132.8379">andFunction</text><line style="stroke:#181818;stroke-width:0.5;" x1="330.5" x2="489.5" y1="143.1094" y2="143.1094"/><text fill="#000000" font-family="sans-serif" font-size="14" lengthAdjust="spacing" text-decoration="underline" textLength="149" x="335.5" y="161.6426">instance : andFunction*</text></g><!--MD5=[fa1a67c867a23a11069d4b5153d9b31a]
class orFunction--><g id="elem_orFunction"><rect codeLine="53" fill="#F1F1F1" height="57.6094" id="orFunction" rx="2.5" ry="2.5" style="stroke:#181818;stroke-width:0.5;" width="150" x="526" y="111.1094"/><ellipse cx="563.5" cy="127.1094" fill="#ADD1B2" rx="11" ry="11" style="stroke:#181818;stroke-width:1.0;"/><path d="M566.2656,122.9844 Q566.4219,122.7656 566.6094,122.6563 Q566.7969,122.5469 567.0156,122.5469 Q567.3906,122.5469 567.625,122.8047 Q567.8594,123.0625 567.8594,123.6719 L567.8594,125.125 Q567.8594,125.7344 567.625,126 Q567.3906,126.2656 567.0156,126.2656 Q566.6719,126.2656 566.4688,126.0625 Q566.2656,125.875 566.1563,125.3594 Q566.1094,125 565.9219,124.8125 Q565.5938,124.4375 564.9844,124.2188 Q564.375,124 563.75,124 Q562.9844,124 562.3516,124.3281 Q561.7188,124.6563 561.2266,125.4063 Q560.7344,126.1563 560.7344,127.1875 L560.7344,128.2813 Q560.7344,129.5156 561.625,130.3359 Q562.5156,131.1563 564.1094,131.1563 Q565.0469,131.1563 565.7031,130.9063 Q566.0938,130.75 566.5156,130.3125 Q566.7813,130.0469 566.9297,129.9688 Q567.0781,129.8906 567.2813,129.8906 Q567.6094,129.8906 567.8672,130.1484 Q568.125,130.4063 568.125,130.75 Q568.125,131.0938 567.7813,131.5 Q567.2813,132.0781 566.4844,132.4063 Q565.4063,132.8594 564.1094,132.8594 Q562.5938,132.8594 561.3906,132.2344 Q560.4063,131.7344 559.7188,130.6641 Q559.0313,129.5938 559.0313,128.3125 L559.0313,127.1563 Q559.0313,125.8281 559.6484,124.6797 Q560.2656,123.5313 561.3594,122.9141 Q562.4531,122.2969 563.6875,122.2969 Q564.4219,122.2969 565.0703,122.4609 Q565.7188,122.625 566.2656,122.9844 Z " fill="#000000"/><text fill="#000000" font-family="sans-serif" font-size="14" lengthAdjust="spacing" textLength="68" x="582.5" y="132.8379">orFunction</text><line style="stroke:#181818;stroke-width:0.5;" x1="527" x2="675" y1="143.1094" y2="143.1094"/><text fill="#000000" font-family="sans-serif" font-size="14" lengthAdjust="spacing" text-decoration="underline" textLength="138" x="532" y="161.6426">instance : orFunction*</text></g><!--MD5=[e955379684b7eab296fcb188820af3a4]
class notFunction--><g id="elem_notFunction"><rect codeLine="57" fill="#F1F1F1" height="57.6094" id="notFunction" rx="2.5" ry="2.5" style="stroke:#181818;stroke-width:0.5;" width="157" x="711.5" y="111.1094"/><ellipse cx="749" cy="127.1094" fill="#ADD1B2" rx="11" ry="11" style="stroke:#181818;stroke-width:1.0;"/><path d="M751.7656,122.9844 Q751.9219,122.7656 752.1094,122.6563 Q752.2969,122.5469 752.5156,122.5469 Q752.8906,122.5469 753.125,122.8047 Q753.3594,123.0625 753.3594,123.6719 L753.3594,125.125 Q753.3594,125.7344 753.125,126 Q752.8906,126.2656 752.5156,126.2656 Q752.1719,126.2656 751.9688,126.0625 Q751.7656,125.875 751.6563,125.3594 Q751.6094,125 751.4219,124.8125 Q751.0938,124.4375 750.4844,124.2188 Q749.875,124 749.25,124 Q748.4844,124 747.8516,124.3281 Q747.2188,124.6563 746.7266,125.4063 Q746.2344,126.1563 746.2344,127.1875 L746.2344,128.2813 Q746.2344,129.5156 747.125,130.3359 Q748.0156,131.1563 749.6094,131.1563 Q750.5469,131.1563 751.2031,130.9063 Q751.5938,130.75 752.0156,130.3125 Q752.2813,130.0469 752.4297,129.9688 Q752.5781,129.8906 752.7813,129.8906 Q753.1094,129.8906 753.3672,130.1484 Q753.625,130.4063 753.625,130.75 Q753.625,131.0938 753.2813,131.5 Q752.7813,132.0781 751.9844,132.4063 Q750.9063,132.8594 749.6094,132.8594 Q748.0938,132.8594 746.8906,132.2344 Q745.9063,131.7344 745.2188,130.6641 Q744.5313,129.5938 744.5313,128.3125 L744.5313,127.1563 Q744.5313,125.8281 745.1484,124.6797 Q745.7656,123.5313 746.8594,122.9141 Q747.9531,122.2969 749.1875,122.2969 Q749.9219,122.2969 750.5703,122.4609 Q751.2188,122.625 751.7656,122.9844 Z " fill="#000000"/><text fill="#000000" font-family="sans-serif" font-size="14" lengthAdjust="spacing" textLength="75" x="768" y="132.8379">notFunction</text><line style="stroke:#181818;stroke-width:0.5;" x1="712.5" x2="867.5" y1="143.1094" y2="143.1094"/><text fill="#000000" font-family="sans-serif" font-size="14" lengthAdjust="spacing" text-decoration="underline" textLength="145" x="717.5" y="161.6426">instance : notFunction*</text></g><!--MD5=[2a4efede861c230d40970cbace16417e]
class nandFunction--><g id="elem_nandFunction"><rect codeLine="61" fill="#F1F1F1" height="57.6094" id="nandFunction" rx="2.5" ry="2.5" style="stroke:#181818;stroke-width:0.5;" width="169" x="903.5" y="111.1094"/><ellipse cx="941" cy="127.1094" fill="#ADD1B2" rx="11" ry="11" style="stroke:#181818;stroke-width:1.0;"/><path d="M943.7656,122.9844 Q943.9219,122.7656 944.1094,122.6563 Q944.2969,122.5469 944.5156,122.5469 Q944.8906,122.5469 945.125,122.8047 Q945.3594,123.0625 945.3594,123.6719 L945.3594,125.125 Q945.3594,125.7344 945.125,126 Q944.8906,126.2656 944.5156,126.2656 Q944.1719,126.2656 943.9688,126.0625 Q943.7656,125.875 943.6563,125.3594 Q943.6094,125 943.4219,124.8125 Q943.0938,124.4375 942.4844,124.2188 Q941.875,124 941.25,124 Q940.4844,124 939.8516,124.3281 Q939.2188,124.6563 938.7266,125.4063 Q938.2344,126.1563 938.2344,127.1875 L938.2344,128.2813 Q938.2344,129.5156 939.125,130.3359 Q940.0156,131.1563 941.6094,131.1563 Q942.5469,131.1563 943.2031,130.9063 Q943.5938,130.75 944.0156,130.3125 Q944.2813,130.0469 944.4297,129.9688 Q944.5781,129.8906 944.7813,129.8906 Q945.1094,129.8906 945.3672,130.1484 Q945.625,130.4063 945.625,130.75 Q945.625,131.0938 945.2813,131.5 Q944.7813,132.0781 943.9844,132.4063 Q942.9063,132.8594 941.6094,132.8594 Q940.0938,132.8594 938.8906,132.2344 Q937.9063,131.7344 937.2188,130.6641 Q936.5313,129.5938 936.5313,128.3125 L936.5313,127.1563 Q936.5313,125.8281 937.1484,124.6797 Q937.7656,123.5313 938.8594,122.9141 Q939.9531,122.2969 941.1875,122.2969 Q941.9219,122.2969 942.5703,122.4609 Q943.2188,122.625 943.7656,122.9844 Z " fill="#000000"/><text fill="#000000" font-family="sans-serif" font-size="14" lengthAdjust="spacing" textLength="87" x="960" y="132.8379">nandFunction</text><line style="stroke:#181818;stroke-width:0.5;" x1="904.5" x2="1071.5" y1="143.1094" y2="143.1094"/><text fill="#000000" font-family="sans-serif" font-size="14" lengthAdjust="spacing" text-decoration="underline" textLength="157" x="909.5" y="161.6426">instance : nandFunction*</text></g><!--MD5=[cbc2ee107d515bccc3decf4e276085f2]
class norFunction--><g id="elem_norFunction"><rect codeLine="65" fill="#F1F1F1" height="57.6094" id="norFunction" rx="2.5" ry="2.5" style="stroke:#181818;stroke-width:0.5;" width="158" x="1108" y="111.1094"/><ellipse cx="1145.5" cy="127.1094" fill="#ADD1B2" rx="11" ry="11" style="stroke:#181818;stroke-width:1.0;"/><path d="M1148.2656,122.9844 Q1148.4219,122.7656 1148.6094,122.6563 Q1148.7969,122.5469 1149.0156,122.5469 Q1149.3906,122.5469 1149.625,122.8047 Q1149.8594,123.0625 1149.8594,123.6719 L1149.8594,125.125 Q1149.8594,125.7344 1149.625,126 Q1149.3906,126.2656 1149.0156,126.2656 Q1148.6719,126.2656 1148.4688,126.0625 Q1148.2656,125.875 1148.1563,125.3594 Q1148.1094,125 1147.9219,124.8125 Q1147.5938,124.4375 1146.9844,124.2188 Q1146.375,124 1145.75,124 Q1144.9844,124 1144.3516,124.3281 Q1143.7188,124.6563 1143.2266,125.4063 Q1142.7344,126.1563 1142.7344,127.1875 L1142.7344,128.2813 Q1142.7344,129.5156 1143.625,130.3359 Q1144.5156,131.1563 1146.1094,131.1563 Q1147.0469,131.1563 1147.7031,130.9063 Q1148.0938,130.75 1148.5156,130.3125 Q1148.7813,130.0469 1148.9297,129.9688 Q1149.0781,129.8906 1149.2813,129.8906 Q1149.6094,129.8906 1149.8672,130.1484 Q1150.125,130.4063 1150.125,130.75 Q1150.125,131.0938 1149.7813,131.5 Q1149.2813,132.0781 1148.4844,132.4063 Q1147.4063,132.8594 1146.1094,132.8594 Q1144.5938,132.8594 1143.3906,132.2344 Q1142.4063,131.7344 1141.7188,130.6641 Q1141.0313,129.5938 1141.0313,128.3125 L1141.0313,127.1563 Q1141.0313,125.8281 1141.6484,124.6797 Q1142.2656,123.5313 1143.3594,122.9141 Q1144.4531,122.2969 1145.6875,122.2969 Q1146.4219,122.2969 1147.0703,122.4609 Q1147.7188,122.625 1148.2656,122.9844 Z " fill="#000000"/><text fill="#000000" font-family="sans-serif" font-size="14" lengthAdjust="spacing" textLength="76" x="1164.5" y="132.8379">norFunction</text><line style="stroke:#181818;stroke-width:0.5;" x1="1109" x2="1265" y1="143.1094" y2="143.1094"/><text fill="#000000" font-family="sans-serif" font-size="14" lengthAdjust="spacing" text-decoration="underline" textLength="146" x="1114" y="161.6426">instance : norFunction*</text></g><!--MD5=[e3848d8232823cf53cae2b0c45ec0813]
class xorFunction--><g id="elem_xorFunction"><rect codeLine="69" fill="#F1F1F1" height="57.6094" id="xorFunction" rx="2.5" ry="2.5" style="stroke:#181818;stroke-width:0.5;" width="156" x="1301" y="111.1094"/><ellipse cx="1338.5" cy="127.1094" fill="#ADD1B2" rx="11" ry="11" style="stroke:#181818;stroke-width:1.0;"/><path d="M1341.2656,122.9844 Q1341.4219,122.7656 1341.6094,122.6563 Q1341.7969,122.5469 1342.0156,122.5469 Q1342.3906,122.5469 1342.625,122.8047 Q1342.8594,123.0625 1342.8594,123.6719 L1342.8594,125.125 Q1342.8594,125.7344 1342.625,126 Q1342.3906,126.2656 1342.0156,126.2656 Q1341.6719,126.2656 1341.4688,126.0625 Q1341.2656,125.875 1341.1563,125.3594 Q1341.1094,125 1340.9219,124.8125 Q1340.5938,124.4375 1339.9844,124.2188 Q1339.375,124 1338.75,124 Q1337.9844,124 1337.3516,124.3281 Q1336.7188,124.6563 1336.2266,125.4063 Q1335.7344,126.1563 1335.7344,127.1875 L1335.7344,128.2813 Q1335.7344,129.5156 1336.625,130.3359 Q1337.5156,131.1563 1339.1094,131.1563 Q1340.0469,131.1563 1340.7031,130.9063 Q1341.0938,130.75 1341.5156,130.3125 Q1341.7813,130.0469 1341.9297,129.9688 Q1342.0781,129.8906 1342.2813,129.8906 Q1342.6094,129.8906 1342.8672,130.1484 Q1343.125,130.4063 1343.125,130.75 Q1343.125,131.0938 1342.7813,131.5 Q1342.2813,132.0781 1341.4844,132.4063 Q1340.4063,132.8594 1339.1094,132.8594 Q1337.5938,132.8594 1336.3906,132.2344 Q1335.4063,131.7344 1334.7188,130.6641 Q1334.0313,129.5938 1334.0313,128.3125 L1334.0313,127.1563 Q1334.0313,125.8281 1334.6484,124.6797 Q1335.2656,123.5313 1336.3594,122.9141 Q1337.4531,122.2969 1338.6875,122.2969 Q1339.4219,122.2969 1340.0703,122.4609 Q1340.7188,122.625 1341.2656,122.9844 Z " fill="#000000"/><text fill="#000000" font-family="sans-serif" font-size="14" lengthAdjust="spacing" textLength="74" x="1357.5" y="132.8379">xorFunction</text><line style="stroke:#181818;stroke-width:0.5;" x1="1302" x2="1456" y1="143.1094" y2="143.1094"/><text fill="#000000" font-family="sans-serif" font-size="14" lengthAdjust="spacing" text-decoration="underline" textLength="144" x="1307" y="161.6426">instance : xorFunction*</text></g><!--MD5=[e4ada7984a0065e443d8e4ee0af95835]
class trueFunction--><g id="elem_trueFunction"><rect codeLine="73" fill="#F1F1F1" height="57.6094" id="trueFunction" rx="2.5" ry="2.5" style="stroke:#181818;stroke-width:0.5;" width="162" x="1492" y="111.1094"/><ellipse cx="1529.5" cy="127.1094" fill="#ADD1B2" rx="11" ry="11" style="stroke:#181818;stroke-width:1.0;"/><path d="M1532.2656,122.9844 Q1532.4219,122.7656 1532.6094,122.6563 Q1532.7969,122.5469 1533.0156,122.5469 Q1533.3906,122.5469 1533.625,122.8047 Q1533.8594,123.0625 1533.8594,123.6719 L1533.8594,125.125 Q1533.8594,125.7344 1533.625,126 Q1533.3906,126.2656 1533.0156,126.2656 Q1532.6719,126.2656 1532.4688,126.0625 Q1532.2656,125.875 1532.1563,125.3594 Q1532.1094,125 1531.9219,124.8125 Q1531.5938,124.4375 1530.9844,124.2188 Q1530.375,124 1529.75,124 Q1528.9844,124 1528.3516,124.3281 Q1527.7188,124.6563 1527.2266,125.4063 Q1526.7344,126.1563 1526.7344,127.1875 L1526.7344,128.2813 Q1526.7344,129.5156 1527.625,130.3359 Q1528.5156,131.1563 1530.1094,131.1563 Q1531.0469,131.1563 1531.7031,130.9063 Q1532.0938,130.75 1532.5156,130.3125 Q1532.7813,130.0469 1532.9297,129.9688 Q1533.0781,129.8906 1533.2813,129.8906 Q1533.6094,129.8906 1533.8672,130.1484 Q1534.125,130.4063 1534.125,130.75 Q1534.125,131.0938 1533.7813,131.5 Q1533.2813,132.0781 1532.4844,132.4063 Q1531.4063,132.8594 1530.1094,132.8594 Q1528.5938,132.8594 1527.3906,132.2344 Q1526.4063,131.7344 1525.7188,130.6641 Q1525.0313,129.5938 1525.0313,128.3125 L1525.0313,127.1563 Q1525.0313,125.8281 1525.6484,124.6797 Q1526.2656,123.5313 1527.3594,122.9141 Q1528.4531,122.2969 1529.6875,122.2969 Q1530.4219,122.2969 1531.0703,122.4609 Q1531.7188,122.625 1532.2656,122.9844 Z " fill="#000000"/><text fill="#000000" font-family="sans-serif" font-size="14" lengthAdjust="spacing" textLength="80" x="1548.5" y="132.8379">trueFunction</text><line style="stroke:#181818;stroke-width:0.5;" x1="1493" x2="1653" y1="143.1094" y2="143.1094"/><text fill="#000000" font-family="sans-serif" font-size="14" lengthAdjust="spacing" text-decoration="underline" textLength="150" x="1498" y="161.6426">instance : trueFunction*</text></g><!--MD5=[45c14a00d1ecec4a219f30d7c121cfda]
class falseFunction--><g id="elem_falseFunction"><rect codeLine="77" fill="#F1F1F1" height="57.6094" id="falseFunction" rx="2.5" ry="2.5" style="stroke:#181818;stroke-width:0.5;" width="167" x="1689.5" y="111.1094"/><ellipse cx="1727" cy="127.1094" fill="#ADD1B2" rx="11" ry="11" style="stroke:#181818;stroke-width:1.0;"/><path d="M1729.7656,122.9844 Q1729.9219,122.7656 1730.1094,122.6563 Q1730.2969,122.5469 1730.5156,122.5469 Q1730.8906,122.5469 1731.125,122.8047 Q1731.3594,123.0625 1731.3594,123.6719 L1731.3594,125.125 Q1731.3594,125.7344 1731.125,126 Q1730.8906,126.2656 1730.5156,126.2656 Q1730.1719,126.2656 1729.9688,126.0625 Q1729.7656,125.875 1729.6563,125.3594 Q1729.6094,125 1729.4219,124.8125 Q1729.0938,124.4375 1728.4844,124.2188 Q1727.875,124 1727.25,124 Q1726.4844,124 1725.8516,124.3281 Q1725.2188,124.6563 1724.7266,125.4063 Q1724.2344,126.1563 1724.2344,127.1875 L1724.2344,128.2813 Q1724.2344,129.5156 1725.125,130.3359 Q1726.0156,131.1563 1727.6094,131.1563 Q1728.5469,131.1563 1729.2031,130.9063 Q1729.5938,130.75 1730.0156,130.3125 Q1730.2813,130.0469 1730.4297,129.9688 Q1730.5781,129.8906 1730.7813,129.8906 Q1731.1094,129.8906 1731.3672,130.1484 Q1731.625,130.4063 1731.625,130.75 Q1731.625,131.0938 1731.2813,131.5 Q1730.7813,132.0781 1729.9844,132.4063 Q1728.9063,132.8594 1727.6094,132.8594 Q1726.0938,132.8594 1724.8906,132.2344 Q1723.9063,131.7344 1723.2188,130.6641 Q1722.5313,129.5938 1722.5313,128.3125 L1722.5313,127.1563 Q1722.5313,125.8281 1723.1484,124.6797 Q1723.7656,123.5313 1724.8594,122.9141 Q1725.9531,122.2969 1727.1875,122.2969 Q1727.9219,122.2969 1728.5703,122.4609 Q1729.2188,122.625 1729.7656,122.9844 Z " fill="#000000"/><text fill="#000000" font-family="sans-serif" font-size="14" lengthAdjust="spacing" textLength="85" x="1746" y="132.8379">falseFunction</text><line style="stroke:#181818;stroke-width:0.5;" x1="1690.5" x2="1855.5" y1="143.1094" y2="143.1094"/><text fill="#000000" font-family="sans-serif" font-size="14" lengthAdjust="spacing" text-decoration="underline" textLength="155" x="1695.5" y="161.6426">instance : falseFunction*</text></g><!--MD5=[dd3cf8399a01963f8cdab78068b8aebb]
class probeFunction--><g id="elem_probeFunction"><rect codeLine="81" fill="#F1F1F1" height="57.6094" id="probeFunction" rx="2.5" ry="2.5" style="stroke:#181818;stroke-width:0.5;" width="174" x="1892" y="111.1094"/><ellipse cx="1929.5" cy="127.1094" fill="#ADD1B2" rx="11" ry="11" style="stroke:#181818;stroke-width:1.0;"/><path d="M1932.2656,122.9844 Q1932.4219,122.7656 1932.6094,122.6563 Q1932.7969,122.5469 1933.0156,122.5469 Q1933.3906,122.5469 1933.625,122.8047 Q1933.8594,123.0625 1933.8594,123.6719 L1933.8594,125.125 Q1933.8594,125.7344 1933.625,126 Q1933.3906,126.2656 1933.0156,126.2656 Q1932.6719,126.2656 1932.4688,126.0625 Q1932.2656,125.875 1932.1563,125.3594 Q1932.1094,125 1931.9219,124.8125 Q1931.5938,124.4375 1930.9844,124.2188 Q1930.375,124 1929.75,124 Q1928.9844,124 1928.3516,124.3281 Q1927.7188,124.6563 1927.2266,125.4063 Q1926.7344,126.1563 1926.7344,127.1875 L1926.7344,128.2813 Q1926.7344,129.5156 1927.625,130.3359 Q1928.5156,131.1563 1930.1094,131.1563 Q1931.0469,131.1563 1931.7031,130.9063 Q1932.0938,130.75 1932.5156,130.3125 Q1932.7813,130.0469 1932.9297,129.9688 Q1933.0781,129.8906 1933.2813,129.8906 Q1933.6094,129.8906 1933.8672,130.1484 Q1934.125,130.4063 1934.125,130.75 Q1934.125,131.0938 1933.7813,131.5 Q1933.2813,132.0781 1932.4844,132.4063 Q1931.4063,132.8594 1930.1094,132.8594 Q1928.5938,132.8594 1927.3906,132.2344 Q1926.4063,131.7344 1925.7188,130.6641 Q1925.0313,129.5938 1925.0313,128.3125 L1925.0313,127.1563 Q1925.0313,125.8281 1925.6484,124.6797 Q1926.2656,123.5313 1927.3594,122.9141 Q1928.4531,122.2969 1929.6875,122.2969 Q1930.4219,122.2969 1931.0703,122.4609 Q1931.7188,122.625 1932.2656,122.9844 Z " fill="#000000"/><text fill="#000000" font-family="sans-serif" font-size="14" lengthAdjust="spacing" textLength="92" x="1948.5" y="132.8379">probeFunction</text><line style="stroke:#181818;stroke-width:0.5;" x1="1893" x2="2065" y1="143.1094" y2="143.1094"/><text fill="#000000" font-family="sans-serif" font-size="14" lengthAdjust="spacing" text-decoration="underline" textLength="162" x="1898" y="161.6426">instance : probeFunction*</text></g><!--MD5=[2249319b84a8ff8910adc7bfcf919aa9]
reverse link node to circuit--><g id="link_node_circuit"><path codeLine="85" d="M173.61,247.6694 C168.35,272.7294 162.88,298.7494 158.1,321.5094 " fill="none" id="node-backto-circuit" style="stroke:#181818;stroke-width:1.0;"/><polygon fill="#181818" points="176.34,234.6794,171.1917,239.7287,173.8725,246.423,179.0208,241.3737,176.34,234.6794" style="stroke:#181818;stroke-width:1.0;"/><text fill="#000000" font-family="sans-serif" font-size="13" lengthAdjust="spacing" textLength="35" x="171" y="279.1045">nodes</text></g><!--MD5=[90cd2379bdd76c49fe8822b8ca395376]
link logicFunction to nodeFactory--><g id="link_logicFunction_nodeFactory"><path codeLine="86" d="M859.64,435.9994 C763.09,470.1394 630.1,517.1594 526.03,553.9594 " fill="none" id="logicFunction-nodeFactory" style="stroke:#181818;stroke-width:1.0;"/><text fill="#000000" font-family="sans-serif" font-size="13" lengthAdjust="spacing" textLength="52" x="676" y="511.1045">functions</text></g><!--MD5=[fc3eb4495ffcca4e5b5b0e4af24a0442]
link node to nodeFactory--><g id="link_node_nodeFactory"><path codeLine="87" d="M259.14,234.9194 C273.55,259.4194 287.65,286.3394 298,312.6094 C328.18,389.2194 345.64,482.6694 354.72,544.4794 " fill="none" id="node-nodeFactory" style="stroke:#181818;stroke-width:1.0;"/></g><!--MD5=[414b78902e5e4c90d38c00c14eca8c32]
link node to logicFunction--><g id="link_node_logicFunction"><path codeLine="89" d="M294.03,224.7394 C299.95,228.3294 305.96,231.6494 312,234.6094 C484.8,319.3294 705.43,358.2994 846.75,375.6094 " fill="none" id="node-to-logicFunction" style="stroke:#181818;stroke-width:1.0;"/><polygon fill="#181818" points="859.75,377.1694,854.2726,372.4792,847.8365,375.7313,853.3139,380.4215,859.75,377.1694" style="stroke:#181818;stroke-width:1.0;"/><text fill="#000000" font-family="sans-serif" font-size="13" lengthAdjust="spacing" textLength="45" x="417" y="279.1045">function</text></g><!--MD5=[9f7eef0b64ab662d51389c0dfcabb017]
link andFunction to logicFunction--><g id="link_andFunction_logicFunction"><path codeLine="91" d="M433.14,169.2094 C451.52,189.8894 478.89,217.3094 508,234.6094 C611.14,295.8994 741.45,335.7094 840.27,359.4694 " fill="none" id="andFunction-to-logicFunction" style="stroke:#181818;stroke-width:1.0;"/><polygon fill="none" points="842.04,352.6894,859.91,364.0794,838.84,366.3194,842.04,352.6894" style="stroke:#181818;stroke-width:1.0;"/></g><!--MD5=[46e65eff66e5b48c3b65cac6fd67b25a]
link orFunction to logicFunction--><g id="link_orFunction_logicFunction"><path codeLine="92" d="M624.71,169.1694 C642.44,189.0294 668.02,215.4494 694,234.6094 C739.34,268.0294 792.92,298.3894 841.84,323.1394 " fill="none" id="orFunction-to-logicFunction" style="stroke:#181818;stroke-width:1.0;"/><polygon fill="none" points="845.19,316.9894,859.98,332.1794,838.95,329.5294,845.19,316.9894" style="stroke:#181818;stroke-width:1.0;"/></g><!--MD5=[c83be8a7f983878377ce9bf45174d864]
link notFunction to logicFunction--><g id="link_notFunction_logicFunction"><path codeLine="93" d="M812.71,169.4994 C837.47,200.4494 878.39,251.5994 914.46,296.6894 " fill="none" id="notFunction-to-logicFunction" style="stroke:#181818;stroke-width:1.0;"/><polygon fill="none" points="919.96,292.3594,926.99,312.3494,909.03,301.0994,919.96,292.3594" style="stroke:#181818;stroke-width:1.0;"/></g><!--MD5=[4b3327dcb63d164d7d889f4250cceb59]
link nandFunction to logicFunction--><g id="link_nandFunction_logicFunction"><path codeLine="94" d="M988,169.4994 C988,199.4394 988,248.2694 988,292.2394 " fill="none" id="nandFunction-to-logicFunction" style="stroke:#181818;stroke-width:1.0;"/><polygon fill="none" points="995,292.3494,988,312.3494,981,292.3494,995,292.3494" style="stroke:#181818;stroke-width:1.0;"/></g><!--MD5=[9e5965a93914beed70434cbe41e2792b]
link norFunction to logicFunction--><g id="link_norFunction_logicFunction"><path codeLine="95" d="M1164.17,169.4994 C1139.29,200.4494 1098.16,251.5994 1061.91,296.6894 " fill="none" id="norFunction-to-logicFunction" style="stroke:#181818;stroke-width:1.0;"/><polygon fill="none" points="1067.31,301.1494,1049.32,312.3494,1056.4,292.3694,1067.31,301.1494" style="stroke:#181818;stroke-width:1.0;"/></g><!--MD5=[6fe8500ed042e7deaa4d0606d0b4ecdc]
link xorFunction to logicFunction--><g id="link_xorFunction_logicFunction"><path codeLine="96" d="M1354.69,169.1494 C1336.53,189.0094 1310.39,215.4194 1284,234.6094 C1237.99,268.0594 1183.73,298.4994 1134.32,323.3294 " fill="none" id="xorFunction-to-logicFunction" style="stroke:#181818;stroke-width:1.0;"/><polygon fill="none" points="1137.38,329.6194,1116.35,332.2094,1131.18,317.0694,1137.38,329.6194" style="stroke:#181818;stroke-width:1.0;"/></g><!--MD5=[fb30892d08521113a473581644e41fc0]
link trueFunction to logicFunction--><g id="link_trueFunction_logicFunction"><path codeLine="97" d="M1549.88,169.2394 C1531.51,189.9394 1504.15,217.3694 1475,234.6094 C1369.63,296.9294 1236.29,336.8194 1135.78,360.3394 " fill="none" id="trueFunction-to-logicFunction" style="stroke:#181818;stroke-width:1.0;"/><polygon fill="none" points="1137.2,367.1994,1116.14,364.8294,1134.08,353.5494,1137.2,367.1994" style="stroke:#181818;stroke-width:1.0;"/></g><!--MD5=[17e3a0928e93a9dd779b2691d6f319f3]
link falseFunction to logicFunction--><g id="link_falseFunction_logicFunction"><path codeLine="98" d="M1749.8,169.5094 C1731,190.6294 1702.67,218.4794 1672,234.6094 C1501.5,324.2794 1280.4,361.9294 1136.42,377.6194 " fill="none" id="falseFunction-to-logicFunction" style="stroke:#181818;stroke-width:1.0;"/><polygon fill="none" points="1136.81,384.6194,1116.19,379.7294,1135.35,370.6894,1136.81,384.6194" style="stroke:#181818;stroke-width:1.0;"/></g><!--MD5=[a7114e1b32ade07cd236b4437fe5758e]
link probeFunction to logicFunction--><g id="link_probeFunction_logicFunction"><path codeLine="99" d="M1955.24,169.4094 C1935.67,190.7694 1906.03,218.9794 1874,234.6094 C1633.9,351.7794 1318.91,381.1194 1136.43,387.6894 " fill="none" id="probeFunction-to-logicFunction" style="stroke:#181818;stroke-width:1.0;"/><polygon fill="none" points="1136.42,394.6994,1116.21,388.3494,1135.97,380.6994,1136.42,394.6994" style="stroke:#181818;stroke-width:1.0;"/></g><rect fill="none" height="12.5781" style="stroke:none;stroke-width:1.0;" width="65" x="2275" y="686.6563"/><text fill="#888888" font-family="sans-serif" font-size="10" lengthAdjust="spacing" textLength="65" x="2275" y="697.0371">16-06-23 v3.0</text><!--MD5=[329201dbf1f13560882580c73340f1d2]
@startuml classDiagram

title Circuit Simulation class diagram
right footer "16-06-23 v3.0"

hide empty members

abstract class node as "Node" {
    - inputs : vector<bool>
    - output : bool
    - name : string
    - nextNodes : vector<node*>

    + propagationDelay : int
    + run() : int 
    + setValue(value : bool)
}

class logicFunction as "LogicFunction" {
    - LogicFunction()
    - LogicFunction(id : string)
    - id : string

    + execute(inputs : vector<bool>) : bool
    + getID() : string
    + {virtual} clone() : logicFunction*
}

class circuit as "Circuit" {
    - nodes : vector<node*>;
    - sortedNodes : vector<node*>

    + run() : result
    + sortNodes()
    + {static} createCircuit(fileName : string) : Circuit*
}

class nodeFactory as "NodeFactory" {
    - {static} instance : NodeFactory*
    - NodeFactory()
    + {static} assign(id : string, function : logicFunction*)
    + {static} create(nodeType : string, name : string) : node*
    + {static} getInstance() : NodeFactory*
}

class fileReader as "FileReader" {
    + {static} readFile(fileName : string) : Circuit*
}

class andFunction{
    {static} instance : andFunction*
}

class orFunction{
    {static} instance : orFunction*
}

class notFunction{
    {static} instance : notFunction*
}

class nandFunction{
    {static} instance : nandFunction*
}

class norFunction{
    {static} instance : norFunction*
}

class xorFunction{
    {static} instance : xorFunction*
}

class trueFunction{
    {static} instance : trueFunction*
}

class falseFunction{
    {static} instance : falseFunction*
}

class probeFunction{
    {static} instance : probeFunction*
}

node *- - circuit : nodes
logicFunction - - nodeFactory : functions
node - - nodeFactory

node - -* logicFunction : function

andFunction - -|> logicFunction
orFunction - -|> logicFunction
notFunction - -|> logicFunction
nandFunction - -|> logicFunction
norFunction - -|> logicFunction
xorFunction - -|> logicFunction
trueFunction - -|> logicFunction
falseFunction - -|> logicFunction
probeFunction - -|> logicFunction

@enduml

PlantUML version 1.2022.7(Mon Aug 22 19:01:30 CEST 2022)
(GPL source distribution)
Java Runtime: Java(TM) SE Runtime Environment
JVM: Java HotSpot(TM) 64-Bit Server VM
Default Encoding: Cp1252
Language: en
Country: US
--></g></svg>